<svg xmlns="http://www.w3.org/2000/svg" xmlns:xlink="http://www.w3.org/1999/xlink" contentStyleType="text/css" data-diagram-type="SEQUENCE" height="1850px" preserveAspectRatio="none" style="width:1927px;height:1850px;background:#003153;" version="1.1" viewBox="0 0 1927 1850" width="1927px" zoomAndPan="magnify"><title>Flujo de recomendaci&#243;n de trayectoria acad&#233;mica</title><defs/><g><rect fill="#003153" height="1850" style="stroke:transparent;stroke-width:1;" width="1927" x="0" y="0"/><text fill="#D9D3D0" font-family="Verdana" font-size="22" font-weight="bold" lengthAdjust="spacing" textLength="614.0879" x="666.2676" y="37.1182">Flujo de recomendaci&#243;n de trayectoria acad&#233;mica</text><g><title>&lt;&lt;workflow&gt;&gt;</title><rect fill="#003153" height="1556.561" style="stroke:#D9D3D0;stroke-width:1;" width="10" x="350.6846" y="180.3652"/></g><g><title>&lt;&lt;activity&gt;&gt;</title><rect fill="#003153" height="102.3979" style="stroke:#D9D3D0;stroke-width:1;" width="10" x="532.769" y="210.1646"/></g><g><title>&lt;&lt;activity&gt;&gt;</title><rect fill="#003153" height="253.1938" style="stroke:#D9D3D0;stroke-width:1;" width="10" x="767.1265" y="433.5591"/></g><g><title>&lt;&lt;activity&gt;&gt;</title><rect fill="#003153" height="237.3945" style="stroke:#D9D3D0;stroke-width:1;" width="10" x="977.0645" y="757.1509"/></g><g><title>&lt;&lt;activity&gt;&gt;</title><rect fill="#003153" height="210.3945" style="stroke:#D9D3D0;stroke-width:1;" width="10" x="1221.6416" y="1026.3447"/></g><g><title>&lt;&lt;activity&gt;&gt;</title><rect fill="#003153" height="354.5918" style="stroke:#D9D3D0;stroke-width:1;" width="10" x="1367.2783" y="1289.3379"/></g><g><title>Google</title><rect fill="#003153" height="158.1973" style="stroke:#D9D3D0;stroke-width:1;" width="10" x="1714.8311" y="1394.5352"/></g><rect fill="#003153" height="542.9863" style="stroke:#D9D3D0;stroke-width:1;" width="1393.1333" x="285.02" y="701.7529"/><rect fill="#003153" height="242.1938" style="stroke:transparent;stroke-width:1;" width="1393.1333" x="285.02" y="1002.5454"/><g><title>Usuario</title><rect fill="transparent" height="1622.1597" width="8" x="35.561" y="132.7666"/><line style="stroke:#D9D3D0;stroke-width:1;" x1="39" x2="39" y1="132.7666" y2="1754.9263"/></g><g><title>&lt;&lt;workflow&gt;&gt;</title><rect fill="transparent" height="1622.1597" width="8" x="351.6846" y="132.7666"/><line style="stroke:#D9D3D0;stroke-width:1;" x1="355.02" x2="355.02" y1="132.7666" y2="1754.9263"/></g><g><title>&lt;&lt;activity&gt;&gt;</title><rect fill="transparent" height="1622.1597" width="8" x="533.769" y="132.7666"/><line style="stroke:#D9D3D0;stroke-width:1;" x1="537.1987" x2="537.1987" y1="132.7666" y2="1754.9263"/></g><g><title>&lt;&lt;activity&gt;&gt;</title><rect fill="transparent" height="1622.1597" width="8" x="768.1265" y="132.7666"/><line style="stroke:#D9D3D0;stroke-width:1;" x1="771.6187" x2="771.6187" y1="132.7666" y2="1754.9263"/></g><g><title>&lt;&lt;activity&gt;&gt;</title><rect fill="transparent" height="1622.1597" width="8" x="978.0645" y="132.7666"/><line style="stroke:#D9D3D0;stroke-width:1;" x1="981.5972" x2="981.5972" y1="132.7666" y2="1754.9263"/></g><g><title>&lt;&lt;activity&gt;&gt;</title><rect fill="transparent" height="1622.1597" width="8" x="1222.6416" y="132.7666"/><line style="stroke:#D9D3D0;stroke-width:1;" x1="1225.9648" x2="1225.9648" y1="132.7666" y2="1754.9263"/></g><g><title>&lt;&lt;activity&gt;&gt;</title><rect fill="transparent" height="1622.1597" width="8" x="1368.2783" y="132.7666"/><line style="stroke:#D9D3D0;stroke-width:1;" x1="1371.3184" x2="1371.3184" y1="132.7666" y2="1754.9263"/></g><g><title>Knowledge</title><rect fill="transparent" height="1622.1597" width="8" x="1496.9404" y="132.7666"/><line style="stroke:#D9D3D0;stroke-width:1;" x1="1500.7002" x2="1500.7002" y1="132.7666" y2="1754.9263"/></g><g><title>Memoria</title><rect fill="transparent" height="1622.1597" width="8" x="1620.4111" y="132.7666"/><line style="stroke:#D9D3D0;stroke-width:1;" x1="1623.6689" x2="1623.6689" y1="132.7666" y2="1754.9263"/></g><g><title>Google</title><rect fill="transparent" height="1622.1597" width="8" x="1715.8311" y="132.7666"/><line style="stroke:#D9D3D0;stroke-width:1;" x1="1719.1533" x2="1719.1533" y1="132.7666" y2="1754.9263"/></g><text fill="#D9D3D0" font-family="Verdana" font-size="14" lengthAdjust="spacing" textLength="53.1221" x="10" y="129.8271">Usuario</text><ellipse cx="39.561" cy="63.752" fill="#003153" rx="8" ry="8" style="stroke:#D9D3D0;stroke-width:1;"/><path d="M39.561,71.752 L39.561,98.752 M26.561,79.752 L52.561,79.752 M39.561,98.752 L26.561,113.752 M39.561,98.752 L52.561,113.752 " fill="transparent" style="stroke:#D9D3D0;stroke-width:1;"/><text fill="#D9D3D0" font-family="Verdana" font-size="14" lengthAdjust="spacing" textLength="53.1221" x="10" y="1768.0015">Usuario</text><ellipse cx="39.561" cy="1779.9409" fill="#003153" rx="8" ry="8" style="stroke:#D9D3D0;stroke-width:1;"/><path d="M39.561,1787.9409 L39.561,1814.9409 M26.561,1795.9409 L52.561,1795.9409 M39.561,1814.9409 L26.561,1829.9409 M39.561,1814.9409 L52.561,1829.9409 " fill="transparent" style="stroke:#D9D3D0;stroke-width:1;"/><rect fill="#003153" height="65.0439" rx="2.5" ry="2.5" style="stroke:#D9D3D0;stroke-width:1;" width="101.3291" x="305.02" y="66.7227"/><text fill="#D9D3D0" font-family="Verdana" font-size="14" font-style="italic" lengthAdjust="spacing" textLength="80.9102" x="315.2295" y="87.7979">&#171;workflow&#187;</text><text fill="#D9D3D0" font-family="Verdana" font-size="14" lengthAdjust="spacing" textLength="87.3291" x="312.02" y="104.8125">Orquestador</text><text fill="#D9D3D0" font-family="Verdana" font-size="14" lengthAdjust="spacing" textLength="83.46" x="313.9546" y="121.8271">Temporal.io</text><rect fill="#003153" height="65.0439" rx="2.5" ry="2.5" style="stroke:#D9D3D0;stroke-width:1;" width="101.3291" x="305.02" y="1753.9263"/><text fill="#D9D3D0" font-family="Verdana" font-size="14" font-style="italic" lengthAdjust="spacing" textLength="80.9102" x="315.2295" y="1775.0015">&#171;workflow&#187;</text><text fill="#D9D3D0" font-family="Verdana" font-size="14" lengthAdjust="spacing" textLength="87.3291" x="312.02" y="1792.0161">Orquestador</text><text fill="#D9D3D0" font-family="Verdana" font-size="14" lengthAdjust="spacing" textLength="83.46" x="313.9546" y="1809.0308">Temporal.io</text><rect fill="#003153" height="65.0439" rx="2.5" ry="2.5" style="stroke:#D9D3D0;stroke-width:1;" width="117.1406" x="479.1987" y="66.7227"/><text fill="#D9D3D0" font-family="Verdana" font-size="14" font-style="italic" lengthAdjust="spacing" textLength="69.0088" x="503.2646" y="87.7979">&#171;activity&#187;</text><text fill="#D9D3D0" font-family="Verdana" font-size="14" lengthAdjust="spacing" textLength="103.1406" x="486.1987" y="104.8125">Student Coach</text><text fill="#D9D3D0" font-family="Verdana" font-size="14" lengthAdjust="spacing" textLength="41.0088" x="517.2646" y="121.8271">Agent</text><rect fill="#003153" height="65.0439" rx="2.5" ry="2.5" style="stroke:#D9D3D0;stroke-width:1;" width="117.1406" x="479.1987" y="1753.9263"/><text fill="#D9D3D0" font-family="Verdana" font-size="14" font-style="italic" lengthAdjust="spacing" textLength="69.0088" x="503.2646" y="1775.0015">&#171;activity&#187;</text><text fill="#D9D3D0" font-family="Verdana" font-size="14" lengthAdjust="spacing" textLength="103.1406" x="486.1987" y="1792.0161">Student Coach</text><text fill="#D9D3D0" font-family="Verdana" font-size="14" lengthAdjust="spacing" textLength="41.0088" x="517.2646" y="1809.0308">Agent</text><rect fill="#003153" height="65.0439" rx="2.5" ry="2.5" style="stroke:#D9D3D0;stroke-width:1;" width="139.0156" x="702.6187" y="66.7227"/><text fill="#D9D3D0" font-family="Verdana" font-size="14" font-style="italic" lengthAdjust="spacing" textLength="69.0088" x="737.6221" y="87.7979">&#171;activity&#187;</text><text fill="#D9D3D0" font-family="Verdana" font-size="14" lengthAdjust="spacing" textLength="125.0156" x="709.6187" y="104.8125">Skills Assessment</text><text fill="#D9D3D0" font-family="Verdana" font-size="14" lengthAdjust="spacing" textLength="41.0088" x="751.6221" y="121.8271">Agent</text><rect fill="#003153" height="65.0439" rx="2.5" ry="2.5" style="stroke:#D9D3D0;stroke-width:1;" width="139.0156" x="702.6187" y="1753.9263"/><text fill="#D9D3D0" font-family="Verdana" font-size="14" font-style="italic" lengthAdjust="spacing" textLength="69.0088" x="737.6221" y="1775.0015">&#171;activity&#187;</text><text fill="#D9D3D0" font-family="Verdana" font-size="14" lengthAdjust="spacing" textLength="125.0156" x="709.6187" y="1792.0161">Skills Assessment</text><text fill="#D9D3D0" font-family="Verdana" font-size="14" lengthAdjust="spacing" textLength="41.0088" x="751.6221" y="1809.0308">Agent</text><rect fill="#003153" height="65.0439" rx="2.5" ry="2.5" style="stroke:#D9D3D0;stroke-width:1;" width="148.9346" x="907.5972" y="66.7227"/><text fill="#D9D3D0" font-family="Verdana" font-size="14" font-style="italic" lengthAdjust="spacing" textLength="69.0088" x="947.5601" y="87.7979">&#171;activity&#187;</text><text fill="#D9D3D0" font-family="Verdana" font-size="14" lengthAdjust="spacing" textLength="134.9346" x="914.5972" y="104.8125">Market Intelligence</text><text fill="#D9D3D0" font-family="Verdana" font-size="14" lengthAdjust="spacing" textLength="41.0088" x="961.5601" y="121.8271">Agent</text><rect fill="#003153" height="65.0439" rx="2.5" ry="2.5" style="stroke:#D9D3D0;stroke-width:1;" width="148.9346" x="907.5972" y="1753.9263"/><text fill="#D9D3D0" font-family="Verdana" font-size="14" font-style="italic" lengthAdjust="spacing" textLength="69.0088" x="947.5601" y="1775.0015">&#171;activity&#187;</text><text fill="#D9D3D0" font-family="Verdana" font-size="14" lengthAdjust="spacing" textLength="134.9346" x="914.5972" y="1792.0161">Market Intelligence</text><text fill="#D9D3D0" font-family="Verdana" font-size="14" lengthAdjust="spacing" textLength="41.0088" x="961.5601" y="1809.0308">Agent</text><rect fill="#003153" height="65.0439" rx="2.5" ry="2.5" style="stroke:#D9D3D0;stroke-width:1;" width="113.3535" x="1169.9648" y="66.7227"/><text fill="#D9D3D0" font-family="Verdana" font-size="14" font-style="italic" lengthAdjust="spacing" textLength="69.0088" x="1192.1372" y="87.7979">&#171;activity&#187;</text><text fill="#D9D3D0" font-family="Verdana" font-size="14" lengthAdjust="spacing" textLength="99.3535" x="1176.9648" y="104.8125">Course Expert</text><text fill="#D9D3D0" font-family="Verdana" font-size="14" lengthAdjust="spacing" textLength="41.0088" x="1206.1372" y="121.8271">Agent</text><rect fill="#003153" height="65.0439" rx="2.5" ry="2.5" style="stroke:#D9D3D0;stroke-width:1;" width="113.3535" x="1169.9648" y="1753.9263"/><text fill="#D9D3D0" font-family="Verdana" font-size="14" font-style="italic" lengthAdjust="spacing" textLength="69.0088" x="1192.1372" y="1775.0015">&#171;activity&#187;</text><text fill="#D9D3D0" font-family="Verdana" font-size="14" lengthAdjust="spacing" textLength="99.3535" x="1176.9648" y="1792.0161">Course Expert</text><text fill="#D9D3D0" font-family="Verdana" font-size="14" lengthAdjust="spacing" textLength="41.0088" x="1206.1372" y="1809.0308">Agent</text><rect fill="#003153" height="65.0439" rx="2.5" ry="2.5" style="stroke:#D9D3D0;stroke-width:1;" width="117.9199" x="1313.3184" y="66.7227"/><text fill="#D9D3D0" font-family="Verdana" font-size="14" font-style="italic" lengthAdjust="spacing" textLength="69.0088" x="1337.7739" y="87.7979">&#171;activity&#187;</text><text fill="#D9D3D0" font-family="Verdana" font-size="14" lengthAdjust="spacing" textLength="103.9199" x="1320.3184" y="104.8125">Career Advisor</text><text fill="#D9D3D0" font-family="Verdana" font-size="14" lengthAdjust="spacing" textLength="41.0088" x="1351.7739" y="121.8271">Agent</text><rect fill="#003153" height="65.0439" rx="2.5" ry="2.5" style="stroke:#D9D3D0;stroke-width:1;" width="117.9199" x="1313.3184" y="1753.9263"/><text fill="#D9D3D0" font-family="Verdana" font-size="14" font-style="italic" lengthAdjust="spacing" textLength="69.0088" x="1337.7739" y="1775.0015">&#171;activity&#187;</text><text fill="#D9D3D0" font-family="Verdana" font-size="14" lengthAdjust="spacing" textLength="103.9199" x="1320.3184" y="1792.0161">Career Advisor</text><text fill="#D9D3D0" font-family="Verdana" font-size="14" lengthAdjust="spacing" textLength="41.0088" x="1351.7739" y="1809.0308">Agent</text><text fill="#D9D3D0" font-family="Verdana" font-size="14" lengthAdjust="spacing" textLength="76.4805" x="1459.7002" y="112.8125">Knowledge</text><text fill="#D9D3D0" font-family="Verdana" font-size="14" lengthAdjust="spacing" textLength="42.8203" x="1476.5303" y="129.8271">Graph</text><path d="M1482.9404,62.7373 C1482.9404,52.7373 1500.9404,52.7373 1500.9404,52.7373 C1500.9404,52.7373 1518.9404,52.7373 1518.9404,62.7373 L1518.9404,88.7373 C1518.9404,98.7373 1500.9404,98.7373 1500.9404,98.7373 C1500.9404,98.7373 1482.9404,98.7373 1482.9404,88.7373 L1482.9404,62.7373 " fill="#003153" style="stroke:#D9D3D0;stroke-width:1.5;"/><path d="M1482.9404,62.7373 C1482.9404,72.7373 1500.9404,72.7373 1500.9404,72.7373 C1500.9404,72.7373 1518.9404,72.7373 1518.9404,62.7373 " fill="transparent" style="stroke:#D9D3D0;stroke-width:1.5;"/><text fill="#D9D3D0" font-family="Verdana" font-size="14" lengthAdjust="spacing" textLength="76.4805" x="1459.7002" y="1768.0015">Knowledge</text><text fill="#D9D3D0" font-family="Verdana" font-size="14" lengthAdjust="spacing" textLength="42.8203" x="1476.5303" y="1785.0161">Graph</text><path d="M1482.9404,1797.9556 C1482.9404,1787.9556 1500.9404,1787.9556 1500.9404,1787.9556 C1500.9404,1787.9556 1518.9404,1787.9556 1518.9404,1797.9556 L1518.9404,1823.9556 C1518.9404,1833.9556 1500.9404,1833.9556 1500.9404,1833.9556 C1500.9404,1833.9556 1482.9404,1833.9556 1482.9404,1823.9556 L1482.9404,1797.9556 " fill="#003153" style="stroke:#D9D3D0;stroke-width:1.5;"/><path d="M1482.9404,1797.9556 C1482.9404,1807.9556 1500.9404,1807.9556 1500.9404,1807.9556 C1500.9404,1807.9556 1518.9404,1807.9556 1518.9404,1797.9556 " fill="transparent" style="stroke:#D9D3D0;stroke-width:1.5;"/><text fill="#D9D3D0" font-family="Verdana" font-size="14" lengthAdjust="spacing" textLength="60.4775" x="1591.1724" y="112.8125">Memoria</text><text fill="#D9D3D0" font-family="Verdana" font-size="14" lengthAdjust="spacing" textLength="81.4844" x="1580.6689" y="129.8271">Compartida</text><path d="M1606.4111,62.7373 C1606.4111,52.7373 1624.4111,52.7373 1624.4111,52.7373 C1624.4111,52.7373 1642.4111,52.7373 1642.4111,62.7373 L1642.4111,88.7373 C1642.4111,98.7373 1624.4111,98.7373 1624.4111,98.7373 C1624.4111,98.7373 1606.4111,98.7373 1606.4111,88.7373 L1606.4111,62.7373 " fill="#003153" style="stroke:#D9D3D0;stroke-width:1.5;"/><path d="M1606.4111,62.7373 C1606.4111,72.7373 1624.4111,72.7373 1624.4111,72.7373 C1624.4111,72.7373 1642.4111,72.7373 1642.4111,62.7373 " fill="transparent" style="stroke:#D9D3D0;stroke-width:1.5;"/><text fill="#D9D3D0" font-family="Verdana" font-size="14" lengthAdjust="spacing" textLength="60.4775" x="1591.1724" y="1768.0015">Memoria</text><text fill="#D9D3D0" font-family="Verdana" font-size="14" lengthAdjust="spacing" textLength="81.4844" x="1580.6689" y="1785.0161">Compartida</text><path d="M1606.4111,1797.9556 C1606.4111,1787.9556 1624.4111,1787.9556 1624.4111,1787.9556 C1624.4111,1787.9556 1642.4111,1787.9556 1642.4111,1797.9556 L1642.4111,1823.9556 C1642.4111,1833.9556 1624.4111,1833.9556 1624.4111,1833.9556 C1624.4111,1833.9556 1606.4111,1833.9556 1606.4111,1823.9556 L1606.4111,1797.9556 " fill="#003153" style="stroke:#D9D3D0;stroke-width:1.5;"/><path d="M1606.4111,1797.9556 C1606.4111,1807.9556 1624.4111,1807.9556 1624.4111,1807.9556 C1624.4111,1807.9556 1642.4111,1807.9556 1642.4111,1797.9556 " fill="transparent" style="stroke:#D9D3D0;stroke-width:1.5;"/><rect fill="#003153" height="48.0293" rx="2.5" ry="2.5" style="stroke:#D9D3D0;stroke-width:1;" width="63.3555" x="1688.1533" y="83.7373"/><text fill="#D9D3D0" font-family="Verdana" font-size="14" lengthAdjust="spacing" textLength="48.7539" x="1695.4541" y="104.8125">Google</text><text fill="#D9D3D0" font-family="Verdana" font-size="14" lengthAdjust="spacing" textLength="49.3555" x="1695.1533" y="121.8271">Gemini</text><rect fill="#003153" height="48.0293" rx="2.5" ry="2.5" style="stroke:#D9D3D0;stroke-width:1;" width="63.3555" x="1688.1533" y="1753.9263"/><text fill="#D9D3D0" font-family="Verdana" font-size="14" lengthAdjust="spacing" textLength="48.7539" x="1695.4541" y="1775.0015">Google</text><text fill="#D9D3D0" font-family="Verdana" font-size="14" lengthAdjust="spacing" textLength="49.3555" x="1695.1533" y="1792.0161">Gemini</text><g><title>&lt;&lt;workflow&gt;&gt;</title><rect fill="#003153" height="1556.561" style="stroke:#D9D3D0;stroke-width:1;" width="10" x="350.6846" y="180.3652"/></g><g><title>&lt;&lt;activity&gt;&gt;</title><rect fill="#003153" height="102.3979" style="stroke:#D9D3D0;stroke-width:1;" width="10" x="532.769" y="210.1646"/></g><g><title>&lt;&lt;activity&gt;&gt;</title><rect fill="#003153" height="253.1938" style="stroke:#D9D3D0;stroke-width:1;" width="10" x="767.1265" y="433.5591"/></g><g><title>&lt;&lt;activity&gt;&gt;</title><rect fill="#003153" height="237.3945" style="stroke:#D9D3D0;stroke-width:1;" width="10" x="977.0645" y="757.1509"/></g><g><title>&lt;&lt;activity&gt;&gt;</title><rect fill="#003153" height="210.3945" style="stroke:#D9D3D0;stroke-width:1;" width="10" x="1221.6416" y="1026.3447"/></g><g><title>&lt;&lt;activity&gt;&gt;</title><rect fill="#003153" height="354.5918" style="stroke:#D9D3D0;stroke-width:1;" width="10" x="1367.2783" y="1289.3379"/></g><g><title>Google</title><rect fill="#003153" height="158.1973" style="stroke:#D9D3D0;stroke-width:1;" width="10" x="1714.8311" y="1394.5352"/></g><polygon fill="#D9D3D0" points="338.6846,176.3652,348.6846,180.3652,338.6846,184.3652,342.6846,180.3652" style="stroke:#D9D3D0;stroke-width:1;"/><line style="stroke:#D9D3D0;stroke-width:1;" x1="39.561" x2="344.6846" y1="180.3652" y2="180.3652"/><text fill="#D9D3D0" font-family="Verdana" font-size="13" lengthAdjust="spacing" textLength="174.2178" x="108.0139" y="159.8364">"Quiero ser Data Scientist,</text><text fill="#D9D3D0" font-family="Verdana" font-size="13" lengthAdjust="spacing" textLength="175.1763" x="107.5347" y="175.6357">tengo Grado en Econom&#237;a"</text><polygon fill="#D9D3D0" points="520.769,206.1646,530.769,210.1646,520.769,214.1646,524.769,210.1646" style="stroke:#D9D3D0;stroke-width:1;"/><line style="stroke:#D9D3D0;stroke-width:1;" x1="360.6846" x2="526.769" y1="210.1646" y2="210.1646"/><text fill="#D9D3D0" font-family="Verdana" font-size="13" lengthAdjust="spacing" textLength="152.8452" x="370.3042" y="205.4351">Analizar consulta inicial</text><polygon fill="#D9D3D0" points="1612.4111,235.9639,1622.4111,239.9639,1612.4111,243.9639,1616.4111,239.9639" style="stroke:#D9D3D0;stroke-width:1;"/><line style="stroke:#D9D3D0;stroke-width:1;" x1="542.769" x2="1618.4111" y1="239.9639" y2="239.9639"/><text fill="#D9D3D0" font-family="Verdana" font-size="13" lengthAdjust="spacing" textLength="159.6943" x="1003.7429" y="235.2344">Guardar contexto sesi&#243;n</text><line style="stroke:#D9D3D0;stroke-width:1;" x1="542.769" x2="584.769" y1="269.7632" y2="269.7632"/><line style="stroke:#D9D3D0;stroke-width:1;" x1="584.769" x2="584.769" y1="269.7632" y2="282.7632"/><line style="stroke:#D9D3D0;stroke-width:1;" x1="543.769" x2="584.769" y1="282.7632" y2="282.7632"/><polygon fill="#D9D3D0" points="553.769,278.7632,543.769,282.7632,553.769,286.7632,549.769,282.7632" style="stroke:#D9D3D0;stroke-width:1;"/><text fill="#D9D3D0" font-family="Verdana" font-size="13" lengthAdjust="spacing" textLength="200.3574" x="549.769" y="265.0337">Evaluar informaci&#243;n disponible</text><polygon fill="#D9D3D0" points="371.6846,308.5625,361.6846,312.5625,371.6846,316.5625,367.6846,312.5625" style="stroke:#D9D3D0;stroke-width:1;"/><line style="stroke:#D9D3D0;stroke-width:1;stroke-dasharray:2.0,2.0;" x1="365.6846" x2="536.769" y1="312.5625" y2="312.5625"/><text fill="#D9D3D0" font-family="Verdana" font-size="13" lengthAdjust="spacing" textLength="148.0845" x="375.1846" y="307.833">Necesita m&#225;s contexto</text><polygon fill="#D9D3D0" points="50.561,354.1611,40.561,358.1611,50.561,362.1611,46.561,358.1611" style="stroke:#D9D3D0;stroke-width:1;"/><line style="stroke:#D9D3D0;stroke-width:1;" x1="44.561" x2="349.6846" y1="358.1611" y2="358.1611"/><text fill="#D9D3D0" font-family="Verdana" font-size="13" lengthAdjust="spacing" textLength="162.8618" x="113.6919" y="337.6323">"&#191;Experiencia con datos?</text><text fill="#D9D3D0" font-family="Verdana" font-size="13" lengthAdjust="spacing" textLength="241.4775" x="74.384" y="353.4316">&#191;Restricciones tiempo/presupuesto?"</text><polygon fill="#D9D3D0" points="338.6846,399.7598,348.6846,403.7598,338.6846,407.7598,342.6846,403.7598" style="stroke:#D9D3D0;stroke-width:1;"/><line style="stroke:#D9D3D0;stroke-width:1;" x1="39.561" x2="344.6846" y1="403.7598" y2="403.7598"/><text fill="#D9D3D0" font-family="Verdana" font-size="13" lengthAdjust="spacing" textLength="216.6519" x="86.7969" y="383.231">"1 a&#241;o analista, uso SQL y Excel.</text><text fill="#D9D3D0" font-family="Verdana" font-size="13" lengthAdjust="spacing" textLength="183.3013" x="103.4722" y="399.0303">Presupuesto medio, 2 a&#241;os"</text><polygon fill="#D9D3D0" points="755.1265,429.5591,765.1265,433.5591,755.1265,437.5591,759.1265,433.5591" style="stroke:#D9D3D0;stroke-width:1;"/><line style="stroke:#D9D3D0;stroke-width:1;" x1="360.6846" x2="761.1265" y1="433.5591" y2="433.5591"/><text fill="#D9D3D0" font-family="Verdana" font-size="13" lengthAdjust="spacing" textLength="200.9985" x="463.4063" y="428.8296">Evaluar competencias actuales</text><polygon fill="#D9D3D0" points="1612.4111,459.3584,1622.4111,463.3584,1612.4111,467.3584,1616.4111,463.3584" style="stroke:#D9D3D0;stroke-width:1;"/><line style="stroke:#D9D3D0;stroke-width:1;" x1="777.1265" x2="1618.4111" y1="463.3584" y2="463.3584"/><text fill="#D9D3D0" font-family="Verdana" font-size="13" lengthAdjust="spacing" textLength="127.5625" x="1136.9875" y="458.6289">Recuperar contexto</text><polygon fill="#D9D3D0" points="788.1265,489.1577,778.1265,493.1577,788.1265,497.1577,784.1265,493.1577" style="stroke:#D9D3D0;stroke-width:1;"/><line style="stroke:#D9D3D0;stroke-width:1;stroke-dasharray:2.0,2.0;" x1="782.1265" x2="1623.4111" y1="493.1577" y2="493.1577"/><text fill="#D9D3D0" font-family="Verdana" font-size="13" lengthAdjust="spacing" textLength="74.4834" x="1163.5271" y="488.4282">Perfil inicial</text><polygon fill="#D9D3D0" points="1488.9404,534.7563,1498.9404,538.7563,1488.9404,542.7563,1492.9404,538.7563" style="stroke:#D9D3D0;stroke-width:1;"/><line style="stroke:#D9D3D0;stroke-width:1;" x1="777.1265" x2="1494.9404" y1="538.7563" y2="538.7563"/><text fill="#D9D3D0" font-family="Verdana" font-size="13" lengthAdjust="spacing" textLength="172.561" x="1052.7529" y="518.2275">Consultar skills requeridos</text><text fill="#D9D3D0" font-family="Verdana" font-size="13" lengthAdjust="spacing" textLength="124.9409" x="1076.563" y="534.0269">para Data Scientist</text><polygon fill="#D9D3D0" points="788.1265,564.5557,778.1265,568.5557,788.1265,572.5557,784.1265,568.5557" style="stroke:#D9D3D0;stroke-width:1;"/><line style="stroke:#D9D3D0;stroke-width:1;stroke-dasharray:2.0,2.0;" x1="782.1265" x2="1499.9404" y1="568.5557" y2="568.5557"/><text fill="#D9D3D0" font-family="Verdana" font-size="13" lengthAdjust="spacing" textLength="124.2427" x="1076.9121" y="563.8262">Lista competencias</text><line style="stroke:#D9D3D0;stroke-width:1;" x1="777.1265" x2="819.1265" y1="598.355" y2="598.355"/><line style="stroke:#D9D3D0;stroke-width:1;" x1="819.1265" x2="819.1265" y1="598.355" y2="611.355"/><line style="stroke:#D9D3D0;stroke-width:1;" x1="778.1265" x2="819.1265" y1="611.355" y2="611.355"/><polygon fill="#D9D3D0" points="788.1265,607.355,778.1265,611.355,788.1265,615.355,784.1265,611.355" style="stroke:#D9D3D0;stroke-width:1;"/><text fill="#D9D3D0" font-family="Verdana" font-size="13" lengthAdjust="spacing" textLength="175.938" x="784.1265" y="593.6255">Mapear experiencia a skills</text><polygon fill="#D9D3D0" points="1612.4111,637.1543,1622.4111,641.1543,1612.4111,645.1543,1616.4111,641.1543" style="stroke:#D9D3D0;stroke-width:1;"/><line style="stroke:#D9D3D0;stroke-width:1;" x1="777.1265" x2="1618.4111" y1="641.1543" y2="641.1543"/><text fill="#D9D3D0" font-family="Verdana" font-size="13" lengthAdjust="spacing" textLength="126.9912" x="1137.2732" y="636.4248">Guardar evaluaci&#243;n</text><polygon fill="#D9D3D0" points="371.6846,682.7529,361.6846,686.7529,371.6846,690.7529,367.6846,686.7529" style="stroke:#D9D3D0;stroke-width:1;"/><line style="stroke:#D9D3D0;stroke-width:1;stroke-dasharray:2.0,2.0;" x1="365.6846" x2="771.1265" y1="686.7529" y2="686.7529"/><text fill="#D9D3D0" font-family="Verdana" font-size="13" lengthAdjust="spacing" textLength="93.9326" x="519.4392" y="666.2241">SQL &#10003; Excel &#10003;</text><text fill="#D9D3D0" font-family="Verdana" font-size="13" lengthAdjust="spacing" textLength="205.4355" x="463.6877" y="682.0234">Python b&#225;sico, ML &#10007; (gap 60%)</text><path d="M285.02,701.7529 L354.2554,701.7529 L354.2554,709.5522 L344.2554,719.5522 L285.02,719.5522 L285.02,701.7529 " fill="#003153" style="stroke:#D9D3D0;stroke-width:1;"/><rect fill="transparent" height="542.9863" style="stroke:#D9D3D0;stroke-width:1;" width="1393.1333" x="285.02" y="701.7529"/><text fill="#D9D3D0" font-family="Verdana" font-size="13" font-weight="bold" lengthAdjust="spacing" textLength="24.2354" x="300.02" y="715.8228">par</text><text fill="#D9D3D0" font-family="Verdana" font-size="11" font-weight="bold" lengthAdjust="spacing" textLength="124.9209" x="369.2554" y="714.812">[Ejecuci&#243;n paralela]</text><polygon fill="#D9D3D0" points="965.0645,753.1509,975.0645,757.1509,965.0645,761.1509,969.0645,757.1509" style="stroke:#D9D3D0;stroke-width:1;"/><line style="stroke:#D9D3D0;stroke-width:1;" x1="360.6846" x2="971.0645" y1="757.1509" y2="757.1509"/><text fill="#D9D3D0" font-family="Verdana" font-size="13" lengthAdjust="spacing" textLength="162.1763" x="587.7864" y="736.6221">Analizar mercado laboral</text><text fill="#D9D3D0" font-family="Verdana" font-size="13" lengthAdjust="spacing" textLength="124.9409" x="606.4041" y="752.4214">para Data Scientist</text><polygon fill="#D9D3D0" points="1612.4111,782.9502,1622.4111,786.9502,1612.4111,790.9502,1616.4111,786.9502" style="stroke:#D9D3D0;stroke-width:1;"/><line style="stroke:#D9D3D0;stroke-width:1;" x1="987.0645" x2="1618.4111" y1="786.9502" y2="786.9502"/><text fill="#D9D3D0" font-family="Verdana" font-size="13" lengthAdjust="spacing" textLength="127.5625" x="1241.9565" y="782.2207">Recuperar contexto</text><polygon fill="#D9D3D0" points="998.0645,812.7495,988.0645,816.7495,998.0645,820.7495,994.0645,816.7495" style="stroke:#D9D3D0;stroke-width:1;"/><line style="stroke:#D9D3D0;stroke-width:1;stroke-dasharray:2.0,2.0;" x1="992.0645" x2="1623.4111" y1="816.7495" y2="816.7495"/><text fill="#D9D3D0" font-family="Verdana" font-size="13" lengthAdjust="spacing" textLength="86.6709" x="1262.4023" y="812.02">Perfil + Skills</text><line style="stroke:#D9D3D0;stroke-width:1;" x1="987.0645" x2="1029.0645" y1="846.5488" y2="846.5488"/><line style="stroke:#D9D3D0;stroke-width:1;" x1="1029.0645" x2="1029.0645" y1="846.5488" y2="859.5488"/><line style="stroke:#D9D3D0;stroke-width:1;" x1="988.0645" x2="1029.0645" y1="859.5488" y2="859.5488"/><polygon fill="#D9D3D0" points="998.0645,855.5488,988.0645,859.5488,998.0645,863.5488,994.0645,859.5488" style="stroke:#D9D3D0;stroke-width:1;"/><text fill="#D9D3D0" font-family="Verdana" font-size="13" lengthAdjust="spacing" textLength="210.5771" x="994.0645" y="841.8193">Consultar LinkedIn/InfoJobs API</text><polygon fill="#D9D3D0" points="1488.9404,885.3481,1498.9404,889.3481,1488.9404,893.3481,1492.9404,889.3481" style="stroke:#D9D3D0;stroke-width:1;"/><line style="stroke:#D9D3D0;stroke-width:1;" x1="987.0645" x2="1494.9404" y1="889.3481" y2="889.3481"/><text fill="#D9D3D0" font-family="Verdana" font-size="13" lengthAdjust="spacing" textLength="203.5122" x="1142.2463" y="884.6187">Consultar tendencias hist&#243;ricas</text><polygon fill="#D9D3D0" points="998.0645,915.1475,988.0645,919.1475,998.0645,923.1475,994.0645,919.1475" style="stroke:#D9D3D0;stroke-width:1;"/><line style="stroke:#D9D3D0;stroke-width:1;stroke-dasharray:2.0,2.0;" x1="992.0645" x2="1499.9404" y1="919.1475" y2="919.1475"/><text fill="#D9D3D0" font-family="Verdana" font-size="13" lengthAdjust="spacing" textLength="112.2646" x="1187.8701" y="914.418">Datos tendencias</text><polygon fill="#D9D3D0" points="1612.4111,944.9468,1622.4111,948.9468,1612.4111,952.9468,1616.4111,948.9468" style="stroke:#D9D3D0;stroke-width:1;"/><line style="stroke:#D9D3D0;stroke-width:1;" x1="987.0645" x2="1618.4111" y1="948.9468" y2="948.9468"/><text fill="#D9D3D0" font-family="Verdana" font-size="13" lengthAdjust="spacing" textLength="166.8545" x="1222.3105" y="944.2173">Guardar an&#225;lisis mercado</text><polygon fill="#D9D3D0" points="371.6846,990.5454,361.6846,994.5454,371.6846,998.5454,367.6846,994.5454" style="stroke:#D9D3D0;stroke-width:1;"/><line style="stroke:#D9D3D0;stroke-width:1;stroke-dasharray:2.0,2.0;" x1="365.6846" x2="981.0645" y1="994.5454" y2="994.5454"/><text fill="#D9D3D0" font-family="Verdana" font-size="13" lengthAdjust="spacing" textLength="120.8784" x="610.9353" y="974.0166">8,500 ofertas/mes</text><text fill="#D9D3D0" font-family="Verdana" font-size="13" lengthAdjust="spacing" textLength="158.228" x="592.2605" y="989.8159">+40% YoY, 50-70K EUR</text><line style="stroke:#D9D3D0;stroke-width:1;stroke-dasharray:2.0,2.0;" x1="285.02" x2="1678.1533" y1="1003.5454" y2="1003.5454"/><polygon fill="#D9D3D0" points="1209.6416,1022.3447,1219.6416,1026.3447,1209.6416,1030.3447,1213.6416,1026.3447" style="stroke:#D9D3D0;stroke-width:1;"/><line style="stroke:#D9D3D0;stroke-width:1;" x1="360.6846" x2="1215.6416" y1="1026.3447" y2="1026.3447"/><text fill="#D9D3D0" font-family="Verdana" font-size="13" lengthAdjust="spacing" textLength="210.7041" x="685.811" y="1021.6152">Buscar formaciones compatibles</text><polygon fill="#D9D3D0" points="1612.4111,1052.144,1622.4111,1056.144,1612.4111,1060.144,1616.4111,1056.144" style="stroke:#D9D3D0;stroke-width:1;"/><line style="stroke:#D9D3D0;stroke-width:1;" x1="1231.6416" x2="1618.4111" y1="1056.144" y2="1056.144"/><text fill="#D9D3D0" font-family="Verdana" font-size="13" lengthAdjust="spacing" textLength="127.5625" x="1364.2451" y="1051.4146">Recuperar contexto</text><polygon fill="#D9D3D0" points="1242.6416,1081.9434,1232.6416,1085.9434,1242.6416,1089.9434,1238.6416,1085.9434" style="stroke:#D9D3D0;stroke-width:1;"/><line style="stroke:#D9D3D0;stroke-width:1;stroke-dasharray:2.0,2.0;" x1="1236.6416" x2="1623.4111" y1="1085.9434" y2="1085.9434"/><text fill="#D9D3D0" font-family="Verdana" font-size="13" lengthAdjust="spacing" textLength="86.6709" x="1384.6909" y="1081.2139">Perfil + Skills</text><polygon fill="#D9D3D0" points="1488.9404,1127.542,1498.9404,1131.542,1488.9404,1135.542,1492.9404,1131.542" style="stroke:#D9D3D0;stroke-width:1;"/><line style="stroke:#D9D3D0;stroke-width:1;" x1="1231.6416" x2="1494.9404" y1="1131.542" y2="1131.542"/><text fill="#D9D3D0" font-family="Verdana" font-size="13" lengthAdjust="spacing" textLength="179.3784" x="1276.6018" y="1111.0132">Query: Cursos para gap ML</text><text fill="#D9D3D0" font-family="Verdana" font-size="13" lengthAdjust="spacing" textLength="245.2988" x="1243.6416" y="1126.8125">con restricciones tiempo/presupuesto</text><polygon fill="#D9D3D0" points="1242.6416,1157.3413,1232.6416,1161.3413,1242.6416,1165.3413,1238.6416,1161.3413" style="stroke:#D9D3D0;stroke-width:1;"/><line style="stroke:#D9D3D0;stroke-width:1;stroke-dasharray:2.0,2.0;" x1="1236.6416" x2="1499.9404" y1="1161.3413" y2="1161.3413"/><text fill="#D9D3D0" font-family="Verdana" font-size="13" lengthAdjust="spacing" textLength="133.561" x="1299.5105" y="1156.6118">M&#225;ster Data Science</text><polygon fill="#D9D3D0" points="1612.4111,1187.1406,1622.4111,1191.1406,1612.4111,1195.1406,1616.4111,1191.1406" style="stroke:#D9D3D0;stroke-width:1;"/><line style="stroke:#D9D3D0;stroke-width:1;" x1="1231.6416" x2="1618.4111" y1="1191.1406" y2="1191.1406"/><text fill="#D9D3D0" font-family="Verdana" font-size="13" lengthAdjust="spacing" textLength="184.3423" x="1335.8552" y="1186.4111">Guardar cursos encontrados</text><polygon fill="#D9D3D0" points="371.6846,1232.7393,361.6846,1236.7393,371.6846,1240.7393,367.6846,1236.7393" style="stroke:#D9D3D0;stroke-width:1;"/><line style="stroke:#D9D3D0;stroke-width:1;stroke-dasharray:2.0,2.0;" x1="365.6846" x2="1225.6416" y1="1236.7393" y2="1236.7393"/><text fill="#D9D3D0" font-family="Verdana" font-size="13" lengthAdjust="spacing" textLength="133.561" x="726.8826" y="1216.2104">M&#225;ster Data Science</text><text fill="#D9D3D0" font-family="Verdana" font-size="13" lengthAdjust="spacing" textLength="113.6421" x="736.842" y="1232.0098">12 meses, Online</text><polygon fill="#D9D3D0" points="1355.2783,1285.3379,1365.2783,1289.3379,1355.2783,1293.3379,1359.2783,1289.3379" style="stroke:#D9D3D0;stroke-width:1;"/><line style="stroke:#D9D3D0;stroke-width:1;" x1="360.6846" x2="1361.2783" y1="1289.3379" y2="1289.3379"/><text fill="#D9D3D0" font-family="Verdana" font-size="13" lengthAdjust="spacing" textLength="159.1104" x="784.4263" y="1268.8091">Dise&#241;ar trayectorias con</text><text fill="#D9D3D0" font-family="Verdana" font-size="13" lengthAdjust="spacing" textLength="120.7642" x="803.5994" y="1284.6084">contexto completo</text><polygon fill="#D9D3D0" points="1612.4111,1315.1372,1622.4111,1319.1372,1612.4111,1323.1372,1616.4111,1319.1372" style="stroke:#D9D3D0;stroke-width:1;"/><line style="stroke:#D9D3D0;stroke-width:1;" x1="1377.2783" x2="1618.4111" y1="1319.1372" y2="1319.1372"/><text fill="#D9D3D0" font-family="Verdana" font-size="13" lengthAdjust="spacing" textLength="191.8643" x="1404.9126" y="1314.4077">Recuperar contexto completo</text><polygon fill="#D9D3D0" points="1388.2783,1344.9365,1378.2783,1348.9365,1388.2783,1352.9365,1384.2783,1348.9365" style="stroke:#D9D3D0;stroke-width:1;"/><line style="stroke:#D9D3D0;stroke-width:1;stroke-dasharray:2.0,2.0;" x1="1382.2783" x2="1623.4111" y1="1348.9365" y2="1348.9365"/><text fill="#D9D3D0" font-family="Verdana" font-size="13" lengthAdjust="spacing" textLength="223.1328" x="1389.2783" y="1344.207">Perfil + Skills + Market + Courses</text><polygon fill="#D9D3D0" points="1702.8311,1390.5352,1712.8311,1394.5352,1702.8311,1398.5352,1706.8311,1394.5352" style="stroke:#D9D3D0;stroke-width:1;"/><line style="stroke:#D9D3D0;stroke-width:1;" x1="1377.2783" x2="1708.8311" y1="1394.5352" y2="1394.5352"/><text fill="#D9D3D0" font-family="Verdana" font-size="13" lengthAdjust="spacing" textLength="162.354" x="1464.8777" y="1374.0063">Razonamiento complejo:</text><text fill="#D9D3D0" font-family="Verdana" font-size="13" lengthAdjust="spacing" textLength="200.9604" x="1445.5745" y="1389.8057">Dise&#241;ar 3 trayectorias &#243;ptimas</text><line style="stroke:#D9D3D0;stroke-width:1;" x1="1724.8311" x2="1766.8311" y1="1424.3345" y2="1424.3345"/><line style="stroke:#D9D3D0;stroke-width:1;" x1="1766.8311" x2="1766.8311" y1="1424.3345" y2="1437.3345"/><line style="stroke:#D9D3D0;stroke-width:1;" x1="1725.8311" x2="1766.8311" y1="1437.3345" y2="1437.3345"/><polygon fill="#D9D3D0" points="1735.8311,1433.3345,1725.8311,1437.3345,1735.8311,1441.3345,1731.8311,1437.3345" style="stroke:#D9D3D0;stroke-width:1;"/><text fill="#D9D3D0" font-family="Verdana" font-size="13" lengthAdjust="spacing" textLength="188.792" x="1731.8311" y="1419.605">Analizar perfil y restricciones</text><line style="stroke:#D9D3D0;stroke-width:1;" x1="1724.8311" x2="1766.8311" y1="1467.1338" y2="1467.1338"/><line style="stroke:#D9D3D0;stroke-width:1;" x1="1766.8311" x2="1766.8311" y1="1467.1338" y2="1480.1338"/><line style="stroke:#D9D3D0;stroke-width:1;" x1="1725.8311" x2="1766.8311" y1="1480.1338" y2="1480.1338"/><polygon fill="#D9D3D0" points="1735.8311,1476.1338,1725.8311,1480.1338,1735.8311,1484.1338,1731.8311,1480.1338" style="stroke:#D9D3D0;stroke-width:1;"/><text fill="#D9D3D0" font-family="Verdana" font-size="13" lengthAdjust="spacing" textLength="184.3994" x="1731.8311" y="1462.4043">Evaluar opciones formativas</text><line style="stroke:#D9D3D0;stroke-width:1;" x1="1724.8311" x2="1766.8311" y1="1509.9331" y2="1509.9331"/><line style="stroke:#D9D3D0;stroke-width:1;" x1="1766.8311" x2="1766.8311" y1="1509.9331" y2="1522.9331"/><line style="stroke:#D9D3D0;stroke-width:1;" x1="1725.8311" x2="1766.8311" y1="1522.9331" y2="1522.9331"/><polygon fill="#D9D3D0" points="1735.8311,1518.9331,1725.8311,1522.9331,1735.8311,1526.9331,1731.8311,1522.9331" style="stroke:#D9D3D0;stroke-width:1;"/><text fill="#D9D3D0" font-family="Verdana" font-size="13" lengthAdjust="spacing" textLength="182.438" x="1731.8311" y="1505.2036">Calcular ROI y alineamiento</text><polygon fill="#D9D3D0" points="1388.2783,1548.7324,1378.2783,1552.7324,1388.2783,1556.7324,1384.2783,1552.7324" style="stroke:#D9D3D0;stroke-width:1;"/><line style="stroke:#D9D3D0;stroke-width:1;stroke-dasharray:2.0,2.0;" x1="1382.2783" x2="1718.8311" y1="1552.7324" y2="1552.7324"/><text fill="#D9D3D0" font-family="Verdana" font-size="13" lengthAdjust="spacing" textLength="211.5674" x="1442.771" y="1548.0029">3 trayectorias con razonamiento</text><polygon fill="#D9D3D0" points="1612.4111,1578.5317,1622.4111,1582.5317,1612.4111,1586.5317,1616.4111,1582.5317" style="stroke:#D9D3D0;stroke-width:1;"/><line style="stroke:#D9D3D0;stroke-width:1;" x1="1377.2783" x2="1618.4111" y1="1582.5317" y2="1582.5317"/><text fill="#D9D3D0" font-family="Verdana" font-size="13" lengthAdjust="spacing" textLength="156.6221" x="1422.5337" y="1577.8022">Guardar recomendaci&#243;n</text><polygon fill="#D9D3D0" points="371.6846,1639.9297,361.6846,1643.9297,371.6846,1647.9297,367.6846,1643.9297" style="stroke:#D9D3D0;stroke-width:1;"/><line style="stroke:#D9D3D0;stroke-width:1;stroke-dasharray:2.0,2.0;" x1="365.6846" x2="1371.2783" y1="1643.9297" y2="1643.9297"/><text fill="#D9D3D0" font-family="Verdana" font-size="13" lengthAdjust="spacing" textLength="172.3706" x="780.2961" y="1607.6016">Trayectoria recomendada:</text><text fill="#D9D3D0" font-family="Verdana" font-size="13" lengthAdjust="spacing" textLength="133.561" x="799.7009" y="1623.4009">M&#225;ster Data Science</text><text fill="#D9D3D0" font-family="Verdana" font-size="13" lengthAdjust="spacing" textLength="169.019" x="781.9719" y="1639.2002">con justificaci&#243;n completa</text><polygon fill="#D9D3D0" points="50.561,1732.9263,40.561,1736.9263,50.561,1740.9263,46.561,1736.9263" style="stroke:#D9D3D0;stroke-width:1;"/><line style="stroke:#D9D3D0;stroke-width:1;" x1="44.561" x2="354.6846" y1="1736.9263" y2="1736.9263"/><text fill="#D9D3D0" font-family="Verdana" font-size="13" lengthAdjust="spacing" textLength="287.1235" x="54.061" y="1668.9995">"Te recomiendo M&#193;STER EN DATA SCIENCE</text><text fill="#D9D3D0" font-family="Verdana" font-size="13" lengthAdjust="spacing" textLength="4.5703" x="195.3376" y="1684.7988">&#160;</text><text fill="#D9D3D0" font-family="Verdana" font-size="13" lengthAdjust="spacing" textLength="74.5786" x="160.3335" y="1700.5981">Por qu&#233;: ...</text><text fill="#D9D3D0" font-family="Verdana" font-size="13" lengthAdjust="spacing" textLength="106.1455" x="144.55" y="1716.3975">Perspectivas: ...</text><text fill="#D9D3D0" font-family="Verdana" font-size="13" lengthAdjust="spacing" textLength="148.6113" x="123.3171" y="1732.1968">ROI: 300% en 4 a&#241;os"</text><!--SRC=[bLRBRXit5DtFLx020hImOokljX021ugi6auilxC8eCqrvrgcnI4d9CUEi-itTD5DDrbcqKNW3mWG_Kc_f9VaZ6P63nVD9ZBdFiyvzv8_k2lCa5t80dCZb4liLAWS36JCeCsriZX2Qs62hr7gsxun-fOvKs33qEA70XMl3FjIJ1JZg1oQ907kj67lR056Q0QM5PQEoT49Bd9GZdME3FbR1wasOtMEMQuDo2sXEzvS6tv57mtuC2zVtceplQH2TdRQCSvSaL96Dj30hyQgFw4_WZ_t1-H8TOWRuUwM7AT2IilwrbBr6NardMtykDvx16QAZkrJhvBQzYWq_RFuURt_G1V68Xj-pD6uTjdXmmEUO10DwwStmdhSQbU8HstV51nS04Nil5NwLc8weKBt3EHNmMSwQLYCCDD6m5WDT1PofX2xyUTtxJBsj9v87mepeKGmcuIVIUA4ayX-ayMrPYcIdBWcV5FWOdQl_0cHUeTU7W8OS4XdNpB18KcyGjZZdHRrFTOvAGGQpVp7NQgLdN51BGlhDiS4lvfeHlsacg5YGwwLpcP_GoS96833LhGaQScASWMPz5XVWHIVmD3VoXQIib0hN82iumJB9CgA72CeFRP70a-ZeyEFpjTfVQErPPbYU0EIR2dmfJPPXORmioOk95RsI_qV8gU8L54s-spdQP8K5ofRQit3IV1z_nPKHfXHFzwV4UFQlXghxzzElRtWN6Y5bZdXPt0xfmLGv7uozQlEEbAUC9XzfRdskD48Rr8spSvE3jWTYPgZt1ghupeEePKAlScU1Y_RMIusJboD4cacHnTg9cLpLu14MvCHpPDoJXjqd28lgDi68Kdy592jiXoZkHHopd4TPZhfqIg94Z3L6Z1-pncHQZiEcsz1XibqqWf-u05fDT18K1cD84VAW0rgO7rNbSWme1EaCxTQuiQpyCzVVqGU_2-YuivT4V4Nf231YOUHj_YJ_JY1dFtSVVHJKqrb4NxSsV2Qu8nAzOrBb90m-hV8NjntZJ7Aq70_an8k_59VZPkFD4yRGuIpSdi-p6emh9cjAYYPtM1nlo_6AwrgYW-4ccAwhxRtQIpVw0kw4Oxt5xpQeY1EqrANLzJ5x9u626AYKWXLbbq_PmtxDSrLv8AQVQPX4hP2hsM_HFElco-wNQOlwG81kvqXYNFZUVSHUw_VRx8NtSU_TD-ouRlJ4AH1RuapIeihgOmNK8-zBYodeifT5VQ3bpGulwnicxle4yxA- -j_SLUbNCLT7S-pS49pI247T4R81arv2OyEnielDlCVwwn9KfLqH3FXMbSBNzV9VDN7zEXpEd_rj4jTOcfLYh5wyfG2qsMnoOwK50eNYIf19VKiRylogYU92OkphrwLzPqQBea0IBoGF6qIgVjvwD8zgLuC3x9L-pSecnUmm1dzA9z66oo-SMmpItmYK1Ruf1LaVX5KyQzrRwpcxJnhDpIxpvt8e741b8-D-5ypz7m5vR6okxOgLdXKLuxEI-44pViygwm787aXoVpqQ9-2WwUkx6HktGJesH8rp3IwRsxUigSLh5JAQx-bQiiboPqtdbXpfnG8ujLYz6LT5zQ9IrfcSU6Nj4EpmaeuQvuQv-LhZuBIxX_DVZyx7vwouI7RxP_tsTbWVtWu68v9cyVazg6OVUcnhIt_Ka1ZSmn9R7b4w19sNTfdzAnxNZqR6gMqddN_0W00]--></g></svg>