<svg xmlns="http://www.w3.org/2000/svg" xmlns:xlink="http://www.w3.org/1999/xlink" contentStyleType="text/css" data-diagram-type="SEQUENCE" height="1672px" preserveAspectRatio="none" style="width:1927px;height:1672px;background:#003153;" version="1.1" viewBox="0 0 1927 1672" width="1927px" zoomAndPan="magnify"><title>Flujo de recomendaci&#243;n de trayectoria acad&#233;mica</title><defs/><g><rect fill="#003153" height="1672" style="stroke:transparent;stroke-width:1;" width="1927" x="0" y="0"/><text fill="#D9D3D0" font-family="Verdana" font-size="22" font-weight="bold" lengthAdjust="spacing" textLength="614.0879" x="666.2676" y="37.1182">Flujo de recomendaci&#243;n de trayectoria acad&#233;mica</text><g><title>Orquestador</title><rect fill="#003153" height="1377.7651" style="stroke:#D9D3D0;stroke-width:1;" width="10" x="350.6846" y="180.3652"/></g><g><title>Student Coach</title><rect fill="#003153" height="72.5986" style="stroke:#D9D3D0;stroke-width:1;" width="10" x="532.769" y="239.9639"/></g><g><title>Skills Assessment</title><rect fill="#003153" height="163.7959" style="stroke:#D9D3D0;stroke-width:1;" width="10" x="767.1265" y="463.3584"/></g><g><title>Market Intelligence</title><rect fill="#003153" height="147.9966" style="stroke:#D9D3D0;stroke-width:1;" width="10" x="977.0645" y="727.3516"/></g><g><title>Course Expert</title><rect fill="#003153" height="120.9966" style="stroke:#D9D3D0;stroke-width:1;" width="10" x="1221.6416" y="907.1475"/></g><g><title>Career Advisor</title><rect fill="#003153" height="324.7925" style="stroke:#D9D3D0;stroke-width:1;" width="10" x="1367.2783" y="1110.542"/></g><g><title>Google</title><rect fill="#003153" height="158.1973" style="stroke:#D9D3D0;stroke-width:1;" width="10" x="1714.8311" y="1215.7393"/></g><rect fill="#003153" height="364.1904" style="stroke:#D9D3D0;stroke-width:1;" width="1267.1606" x="285.02" y="671.9536"/><rect fill="#003153" height="152.7959" style="stroke:transparent;stroke-width:1;" width="1267.1606" x="285.02" y="883.3481"/><g><title>Usuario</title><rect fill="transparent" height="1443.3638" width="8" x="35.561" y="132.7666"/><line style="stroke:#D9D3D0;stroke-width:1;" x1="39" x2="39" y1="132.7666" y2="1576.1304"/></g><g><title>Orquestador</title><rect fill="transparent" height="1443.3638" width="8" x="351.6846" y="132.7666"/><line style="stroke:#D9D3D0;stroke-width:1;" x1="355.02" x2="355.02" y1="132.7666" y2="1576.1304"/></g><g><title>Student Coach</title><rect fill="transparent" height="1443.3638" width="8" x="533.769" y="132.7666"/><line style="stroke:#D9D3D0;stroke-width:1;" x1="537.1987" x2="537.1987" y1="132.7666" y2="1576.1304"/></g><g><title>Skills Assessment</title><rect fill="transparent" height="1443.3638" width="8" x="768.1265" y="132.7666"/><line style="stroke:#D9D3D0;stroke-width:1;" x1="771.6187" x2="771.6187" y1="132.7666" y2="1576.1304"/></g><g><title>Market Intelligence</title><rect fill="transparent" height="1443.3638" width="8" x="978.0645" y="132.7666"/><line style="stroke:#D9D3D0;stroke-width:1;" x1="981.5972" x2="981.5972" y1="132.7666" y2="1576.1304"/></g><g><title>Course Expert</title><rect fill="transparent" height="1443.3638" width="8" x="1222.6416" y="132.7666"/><line style="stroke:#D9D3D0;stroke-width:1;" x1="1225.9648" x2="1225.9648" y1="132.7666" y2="1576.1304"/></g><g><title>Career Advisor</title><rect fill="transparent" height="1443.3638" width="8" x="1368.2783" y="132.7666"/><line style="stroke:#D9D3D0;stroke-width:1;" x1="1371.3184" x2="1371.3184" y1="132.7666" y2="1576.1304"/></g><g><title>Knowledge</title><rect fill="transparent" height="1443.3638" width="8" x="1496.9404" y="132.7666"/><line style="stroke:#D9D3D0;stroke-width:1;" x1="1500.7002" x2="1500.7002" y1="132.7666" y2="1576.1304"/></g><g><title>Memoria</title><rect fill="transparent" height="1443.3638" width="8" x="1620.4111" y="132.7666"/><line style="stroke:#D9D3D0;stroke-width:1;" x1="1623.6689" x2="1623.6689" y1="132.7666" y2="1576.1304"/></g><g><title>Google</title><rect fill="transparent" height="1443.3638" width="8" x="1715.8311" y="132.7666"/><line style="stroke:#D9D3D0;stroke-width:1;" x1="1719.1533" x2="1719.1533" y1="132.7666" y2="1576.1304"/></g><text fill="#D9D3D0" font-family="Verdana" font-size="14" lengthAdjust="spacing" textLength="53.1221" x="10" y="129.8271">Usuario</text><ellipse cx="39.561" cy="63.752" fill="#003153" rx="8" ry="8" style="stroke:#D9D3D0;stroke-width:1;"/><path d="M39.561,71.752 L39.561,98.752 M26.561,79.752 L52.561,79.752 M39.561,98.752 L26.561,113.752 M39.561,98.752 L52.561,113.752 " fill="transparent" style="stroke:#D9D3D0;stroke-width:1;"/><text fill="#D9D3D0" font-family="Verdana" font-size="14" lengthAdjust="spacing" textLength="53.1221" x="10" y="1589.2056">Usuario</text><ellipse cx="39.561" cy="1601.145" fill="#003153" rx="8" ry="8" style="stroke:#D9D3D0;stroke-width:1;"/><path d="M39.561,1609.145 L39.561,1636.145 M26.561,1617.145 L52.561,1617.145 M39.561,1636.145 L26.561,1651.145 M39.561,1636.145 L52.561,1651.145 " fill="transparent" style="stroke:#D9D3D0;stroke-width:1;"/><rect fill="#003153" height="48.0293" rx="2.5" ry="2.5" style="stroke:#D9D3D0;stroke-width:1;" width="101.3291" x="305.02" y="83.7373"/><text fill="#D9D3D0" font-family="Verdana" font-size="14" lengthAdjust="spacing" textLength="87.3291" x="312.02" y="104.8125">Orquestador</text><text fill="#D9D3D0" font-family="Verdana" font-size="14" lengthAdjust="spacing" textLength="83.46" x="313.9546" y="121.8271">Temporal.io</text><rect fill="#003153" height="48.0293" rx="2.5" ry="2.5" style="stroke:#D9D3D0;stroke-width:1;" width="101.3291" x="305.02" y="1575.1304"/><text fill="#D9D3D0" font-family="Verdana" font-size="14" lengthAdjust="spacing" textLength="87.3291" x="312.02" y="1596.2056">Orquestador</text><text fill="#D9D3D0" font-family="Verdana" font-size="14" lengthAdjust="spacing" textLength="83.46" x="313.9546" y="1613.2202">Temporal.io</text><rect fill="#003153" height="48.0293" rx="2.5" ry="2.5" style="stroke:#D9D3D0;stroke-width:1;" width="117.1406" x="479.1987" y="83.7373"/><text fill="#D9D3D0" font-family="Verdana" font-size="14" lengthAdjust="spacing" textLength="103.1406" x="486.1987" y="104.8125">Student Coach</text><text fill="#D9D3D0" font-family="Verdana" font-size="14" lengthAdjust="spacing" textLength="41.0088" x="517.2646" y="121.8271">Agent</text><rect fill="#003153" height="48.0293" rx="2.5" ry="2.5" style="stroke:#D9D3D0;stroke-width:1;" width="117.1406" x="479.1987" y="1575.1304"/><text fill="#D9D3D0" font-family="Verdana" font-size="14" lengthAdjust="spacing" textLength="103.1406" x="486.1987" y="1596.2056">Student Coach</text><text fill="#D9D3D0" font-family="Verdana" font-size="14" lengthAdjust="spacing" textLength="41.0088" x="517.2646" y="1613.2202">Agent</text><rect fill="#003153" height="48.0293" rx="2.5" ry="2.5" style="stroke:#D9D3D0;stroke-width:1;" width="139.0156" x="702.6187" y="83.7373"/><text fill="#D9D3D0" font-family="Verdana" font-size="14" lengthAdjust="spacing" textLength="125.0156" x="709.6187" y="104.8125">Skills Assessment</text><text fill="#D9D3D0" font-family="Verdana" font-size="14" lengthAdjust="spacing" textLength="41.0088" x="751.6221" y="121.8271">Agent</text><rect fill="#003153" height="48.0293" rx="2.5" ry="2.5" style="stroke:#D9D3D0;stroke-width:1;" width="139.0156" x="702.6187" y="1575.1304"/><text fill="#D9D3D0" font-family="Verdana" font-size="14" lengthAdjust="spacing" textLength="125.0156" x="709.6187" y="1596.2056">Skills Assessment</text><text fill="#D9D3D0" font-family="Verdana" font-size="14" lengthAdjust="spacing" textLength="41.0088" x="751.6221" y="1613.2202">Agent</text><rect fill="#003153" height="48.0293" rx="2.5" ry="2.5" style="stroke:#D9D3D0;stroke-width:1;" width="148.9346" x="907.5972" y="83.7373"/><text fill="#D9D3D0" font-family="Verdana" font-size="14" lengthAdjust="spacing" textLength="134.9346" x="914.5972" y="104.8125">Market Intelligence</text><text fill="#D9D3D0" font-family="Verdana" font-size="14" lengthAdjust="spacing" textLength="41.0088" x="961.5601" y="121.8271">Agent</text><rect fill="#003153" height="48.0293" rx="2.5" ry="2.5" style="stroke:#D9D3D0;stroke-width:1;" width="148.9346" x="907.5972" y="1575.1304"/><text fill="#D9D3D0" font-family="Verdana" font-size="14" lengthAdjust="spacing" textLength="134.9346" x="914.5972" y="1596.2056">Market Intelligence</text><text fill="#D9D3D0" font-family="Verdana" font-size="14" lengthAdjust="spacing" textLength="41.0088" x="961.5601" y="1613.2202">Agent</text><rect fill="#003153" height="48.0293" rx="2.5" ry="2.5" style="stroke:#D9D3D0;stroke-width:1;" width="113.3535" x="1169.9648" y="83.7373"/><text fill="#D9D3D0" font-family="Verdana" font-size="14" lengthAdjust="spacing" textLength="99.3535" x="1176.9648" y="104.8125">Course Expert</text><text fill="#D9D3D0" font-family="Verdana" font-size="14" lengthAdjust="spacing" textLength="41.0088" x="1206.1372" y="121.8271">Agent</text><rect fill="#003153" height="48.0293" rx="2.5" ry="2.5" style="stroke:#D9D3D0;stroke-width:1;" width="113.3535" x="1169.9648" y="1575.1304"/><text fill="#D9D3D0" font-family="Verdana" font-size="14" lengthAdjust="spacing" textLength="99.3535" x="1176.9648" y="1596.2056">Course Expert</text><text fill="#D9D3D0" font-family="Verdana" font-size="14" lengthAdjust="spacing" textLength="41.0088" x="1206.1372" y="1613.2202">Agent</text><rect fill="#003153" height="48.0293" rx="2.5" ry="2.5" style="stroke:#D9D3D0;stroke-width:1;" width="117.9199" x="1313.3184" y="83.7373"/><text fill="#D9D3D0" font-family="Verdana" font-size="14" lengthAdjust="spacing" textLength="103.9199" x="1320.3184" y="104.8125">Career Advisor</text><text fill="#D9D3D0" font-family="Verdana" font-size="14" lengthAdjust="spacing" textLength="41.0088" x="1351.7739" y="121.8271">Agent</text><rect fill="#003153" height="48.0293" rx="2.5" ry="2.5" style="stroke:#D9D3D0;stroke-width:1;" width="117.9199" x="1313.3184" y="1575.1304"/><text fill="#D9D3D0" font-family="Verdana" font-size="14" lengthAdjust="spacing" textLength="103.9199" x="1320.3184" y="1596.2056">Career Advisor</text><text fill="#D9D3D0" font-family="Verdana" font-size="14" lengthAdjust="spacing" textLength="41.0088" x="1351.7739" y="1613.2202">Agent</text><text fill="#D9D3D0" font-family="Verdana" font-size="14" lengthAdjust="spacing" textLength="76.4805" x="1459.7002" y="112.8125">Knowledge</text><text fill="#D9D3D0" font-family="Verdana" font-size="14" lengthAdjust="spacing" textLength="42.8203" x="1476.5303" y="129.8271">Graph</text><path d="M1482.9404,62.7373 C1482.9404,52.7373 1500.9404,52.7373 1500.9404,52.7373 C1500.9404,52.7373 1518.9404,52.7373 1518.9404,62.7373 L1518.9404,88.7373 C1518.9404,98.7373 1500.9404,98.7373 1500.9404,98.7373 C1500.9404,98.7373 1482.9404,98.7373 1482.9404,88.7373 L1482.9404,62.7373 " fill="#003153" style="stroke:#D9D3D0;stroke-width:1.5;"/><path d="M1482.9404,62.7373 C1482.9404,72.7373 1500.9404,72.7373 1500.9404,72.7373 C1500.9404,72.7373 1518.9404,72.7373 1518.9404,62.7373 " fill="transparent" style="stroke:#D9D3D0;stroke-width:1.5;"/><text fill="#D9D3D0" font-family="Verdana" font-size="14" lengthAdjust="spacing" textLength="76.4805" x="1459.7002" y="1589.2056">Knowledge</text><text fill="#D9D3D0" font-family="Verdana" font-size="14" lengthAdjust="spacing" textLength="42.8203" x="1476.5303" y="1606.2202">Graph</text><path d="M1482.9404,1619.1597 C1482.9404,1609.1597 1500.9404,1609.1597 1500.9404,1609.1597 C1500.9404,1609.1597 1518.9404,1609.1597 1518.9404,1619.1597 L1518.9404,1645.1597 C1518.9404,1655.1597 1500.9404,1655.1597 1500.9404,1655.1597 C1500.9404,1655.1597 1482.9404,1655.1597 1482.9404,1645.1597 L1482.9404,1619.1597 " fill="#003153" style="stroke:#D9D3D0;stroke-width:1.5;"/><path d="M1482.9404,1619.1597 C1482.9404,1629.1597 1500.9404,1629.1597 1500.9404,1629.1597 C1500.9404,1629.1597 1518.9404,1629.1597 1518.9404,1619.1597 " fill="transparent" style="stroke:#D9D3D0;stroke-width:1.5;"/><text fill="#D9D3D0" font-family="Verdana" font-size="14" lengthAdjust="spacing" textLength="60.4775" x="1591.1724" y="112.8125">Memoria</text><text fill="#D9D3D0" font-family="Verdana" font-size="14" lengthAdjust="spacing" textLength="81.4844" x="1580.6689" y="129.8271">Compartida</text><path d="M1606.4111,62.7373 C1606.4111,52.7373 1624.4111,52.7373 1624.4111,52.7373 C1624.4111,52.7373 1642.4111,52.7373 1642.4111,62.7373 L1642.4111,88.7373 C1642.4111,98.7373 1624.4111,98.7373 1624.4111,98.7373 C1624.4111,98.7373 1606.4111,98.7373 1606.4111,88.7373 L1606.4111,62.7373 " fill="#003153" style="stroke:#D9D3D0;stroke-width:1.5;"/><path d="M1606.4111,62.7373 C1606.4111,72.7373 1624.4111,72.7373 1624.4111,72.7373 C1624.4111,72.7373 1642.4111,72.7373 1642.4111,62.7373 " fill="transparent" style="stroke:#D9D3D0;stroke-width:1.5;"/><text fill="#D9D3D0" font-family="Verdana" font-size="14" lengthAdjust="spacing" textLength="60.4775" x="1591.1724" y="1589.2056">Memoria</text><text fill="#D9D3D0" font-family="Verdana" font-size="14" lengthAdjust="spacing" textLength="81.4844" x="1580.6689" y="1606.2202">Compartida</text><path d="M1606.4111,1619.1597 C1606.4111,1609.1597 1624.4111,1609.1597 1624.4111,1609.1597 C1624.4111,1609.1597 1642.4111,1609.1597 1642.4111,1619.1597 L1642.4111,1645.1597 C1642.4111,1655.1597 1624.4111,1655.1597 1624.4111,1655.1597 C1624.4111,1655.1597 1606.4111,1655.1597 1606.4111,1645.1597 L1606.4111,1619.1597 " fill="#003153" style="stroke:#D9D3D0;stroke-width:1.5;"/><path d="M1606.4111,1619.1597 C1606.4111,1629.1597 1624.4111,1629.1597 1624.4111,1629.1597 C1624.4111,1629.1597 1642.4111,1629.1597 1642.4111,1619.1597 " fill="transparent" style="stroke:#D9D3D0;stroke-width:1.5;"/><rect fill="#003153" height="48.0293" rx="2.5" ry="2.5" style="stroke:#D9D3D0;stroke-width:1;" width="63.3555" x="1688.1533" y="83.7373"/><text fill="#D9D3D0" font-family="Verdana" font-size="14" lengthAdjust="spacing" textLength="48.7539" x="1695.4541" y="104.8125">Google</text><text fill="#D9D3D0" font-family="Verdana" font-size="14" lengthAdjust="spacing" textLength="49.3555" x="1695.1533" y="121.8271">Gemini</text><rect fill="#003153" height="48.0293" rx="2.5" ry="2.5" style="stroke:#D9D3D0;stroke-width:1;" width="63.3555" x="1688.1533" y="1575.1304"/><text fill="#D9D3D0" font-family="Verdana" font-size="14" lengthAdjust="spacing" textLength="48.7539" x="1695.4541" y="1596.2056">Google</text><text fill="#D9D3D0" font-family="Verdana" font-size="14" lengthAdjust="spacing" textLength="49.3555" x="1695.1533" y="1613.2202">Gemini</text><g><title>Orquestador</title><rect fill="#003153" height="1377.7651" style="stroke:#D9D3D0;stroke-width:1;" width="10" x="350.6846" y="180.3652"/></g><g><title>Student Coach</title><rect fill="#003153" height="72.5986" style="stroke:#D9D3D0;stroke-width:1;" width="10" x="532.769" y="239.9639"/></g><g><title>Skills Assessment</title><rect fill="#003153" height="163.7959" style="stroke:#D9D3D0;stroke-width:1;" width="10" x="767.1265" y="463.3584"/></g><g><title>Market Intelligence</title><rect fill="#003153" height="147.9966" style="stroke:#D9D3D0;stroke-width:1;" width="10" x="977.0645" y="727.3516"/></g><g><title>Course Expert</title><rect fill="#003153" height="120.9966" style="stroke:#D9D3D0;stroke-width:1;" width="10" x="1221.6416" y="907.1475"/></g><g><title>Career Advisor</title><rect fill="#003153" height="324.7925" style="stroke:#D9D3D0;stroke-width:1;" width="10" x="1367.2783" y="1110.542"/></g><g><title>Google</title><rect fill="#003153" height="158.1973" style="stroke:#D9D3D0;stroke-width:1;" width="10" x="1714.8311" y="1215.7393"/></g><polygon fill="#D9D3D0" points="338.6846,176.3652,348.6846,180.3652,338.6846,184.3652,342.6846,180.3652" style="stroke:#D9D3D0;stroke-width:1;"/><line style="stroke:#D9D3D0;stroke-width:1;" x1="39.561" x2="344.6846" y1="180.3652" y2="180.3652"/><text fill="#D9D3D0" font-family="Verdana" font-size="13" lengthAdjust="spacing" textLength="174.2178" x="108.0139" y="159.8364">"Quiero ser Data Scientist,</text><text fill="#D9D3D0" font-family="Verdana" font-size="13" lengthAdjust="spacing" textLength="175.1763" x="107.5347" y="175.6357">tengo Grado en Econom&#237;a"</text><polygon fill="#D9D3D0" points="1612.4111,206.1646,1622.4111,210.1646,1612.4111,214.1646,1616.4111,210.1646" style="stroke:#D9D3D0;stroke-width:1;"/><line style="stroke:#D9D3D0;stroke-width:1;" x1="360.6846" x2="1618.4111" y1="210.1646" y2="210.1646"/><text fill="#D9D3D0" font-family="Verdana" font-size="13" lengthAdjust="spacing" textLength="159.6943" x="912.7007" y="205.4351">Guardar contexto sesi&#243;n</text><polygon fill="#D9D3D0" points="520.769,235.9639,530.769,239.9639,520.769,243.9639,524.769,239.9639" style="stroke:#D9D3D0;stroke-width:1;"/><line style="stroke:#D9D3D0;stroke-width:1;" x1="360.6846" x2="526.769" y1="239.9639" y2="239.9639"/><text fill="#D9D3D0" font-family="Verdana" font-size="13" lengthAdjust="spacing" textLength="152.8452" x="370.3042" y="235.2344">Analizar consulta inicial</text><line style="stroke:#D9D3D0;stroke-width:1;" x1="542.769" x2="584.769" y1="269.7632" y2="269.7632"/><line style="stroke:#D9D3D0;stroke-width:1;" x1="584.769" x2="584.769" y1="269.7632" y2="282.7632"/><line style="stroke:#D9D3D0;stroke-width:1;" x1="543.769" x2="584.769" y1="282.7632" y2="282.7632"/><polygon fill="#D9D3D0" points="553.769,278.7632,543.769,282.7632,553.769,286.7632,549.769,282.7632" style="stroke:#D9D3D0;stroke-width:1;"/><text fill="#D9D3D0" font-family="Verdana" font-size="13" lengthAdjust="spacing" textLength="200.3574" x="549.769" y="265.0337">Evaluar informaci&#243;n disponible</text><polygon fill="#D9D3D0" points="371.6846,308.5625,361.6846,312.5625,371.6846,316.5625,367.6846,312.5625" style="stroke:#D9D3D0;stroke-width:1;"/><line style="stroke:#D9D3D0;stroke-width:1;stroke-dasharray:2.0,2.0;" x1="365.6846" x2="536.769" y1="312.5625" y2="312.5625"/><text fill="#D9D3D0" font-family="Verdana" font-size="13" lengthAdjust="spacing" textLength="148.0845" x="375.1846" y="307.833">Necesita m&#225;s contexto</text><polygon fill="#D9D3D0" points="50.561,354.1611,40.561,358.1611,50.561,362.1611,46.561,358.1611" style="stroke:#D9D3D0;stroke-width:1;"/><line style="stroke:#D9D3D0;stroke-width:1;" x1="44.561" x2="349.6846" y1="358.1611" y2="358.1611"/><text fill="#D9D3D0" font-family="Verdana" font-size="13" lengthAdjust="spacing" textLength="162.8618" x="113.6919" y="337.6323">"&#191;Experiencia con datos?</text><text fill="#D9D3D0" font-family="Verdana" font-size="13" lengthAdjust="spacing" textLength="241.4775" x="74.384" y="353.4316">&#191;Restricciones tiempo/presupuesto?"</text><polygon fill="#D9D3D0" points="338.6846,399.7598,348.6846,403.7598,338.6846,407.7598,342.6846,403.7598" style="stroke:#D9D3D0;stroke-width:1;"/><line style="stroke:#D9D3D0;stroke-width:1;" x1="39.561" x2="344.6846" y1="403.7598" y2="403.7598"/><text fill="#D9D3D0" font-family="Verdana" font-size="13" lengthAdjust="spacing" textLength="216.6519" x="86.7969" y="383.231">"1 a&#241;o analista, uso SQL y Excel.</text><text fill="#D9D3D0" font-family="Verdana" font-size="13" lengthAdjust="spacing" textLength="183.3013" x="103.4722" y="399.0303">Presupuesto medio, 2 a&#241;os"</text><polygon fill="#D9D3D0" points="1612.4111,429.5591,1622.4111,433.5591,1612.4111,437.5591,1616.4111,433.5591" style="stroke:#D9D3D0;stroke-width:1;"/><line style="stroke:#D9D3D0;stroke-width:1;" x1="360.6846" x2="1618.4111" y1="433.5591" y2="433.5591"/><text fill="#D9D3D0" font-family="Verdana" font-size="13" lengthAdjust="spacing" textLength="125.1694" x="929.9631" y="428.8296">Actualizar contexto</text><polygon fill="#D9D3D0" points="755.1265,459.3584,765.1265,463.3584,755.1265,467.3584,759.1265,463.3584" style="stroke:#D9D3D0;stroke-width:1;"/><line style="stroke:#D9D3D0;stroke-width:1;" x1="360.6846" x2="761.1265" y1="463.3584" y2="463.3584"/><text fill="#D9D3D0" font-family="Verdana" font-size="13" lengthAdjust="spacing" textLength="200.9985" x="463.4063" y="458.6289">Evaluar competencias actuales</text><polygon fill="#D9D3D0" points="1488.9404,504.957,1498.9404,508.957,1488.9404,512.957,1492.9404,508.957" style="stroke:#D9D3D0;stroke-width:1;"/><line style="stroke:#D9D3D0;stroke-width:1;" x1="777.1265" x2="1494.9404" y1="508.957" y2="508.957"/><text fill="#D9D3D0" font-family="Verdana" font-size="13" lengthAdjust="spacing" textLength="172.561" x="1052.7529" y="488.4282">Consultar skills requeridos</text><text fill="#D9D3D0" font-family="Verdana" font-size="13" lengthAdjust="spacing" textLength="124.9409" x="1076.563" y="504.2275">para Data Scientist</text><polygon fill="#D9D3D0" points="788.1265,534.7563,778.1265,538.7563,788.1265,542.7563,784.1265,538.7563" style="stroke:#D9D3D0;stroke-width:1;"/><line style="stroke:#D9D3D0;stroke-width:1;stroke-dasharray:2.0,2.0;" x1="782.1265" x2="1499.9404" y1="538.7563" y2="538.7563"/><text fill="#D9D3D0" font-family="Verdana" font-size="13" lengthAdjust="spacing" textLength="124.2427" x="1076.9121" y="534.0269">Lista competencias</text><line style="stroke:#D9D3D0;stroke-width:1;" x1="777.1265" x2="819.1265" y1="568.5557" y2="568.5557"/><line style="stroke:#D9D3D0;stroke-width:1;" x1="819.1265" x2="819.1265" y1="568.5557" y2="581.5557"/><line style="stroke:#D9D3D0;stroke-width:1;" x1="778.1265" x2="819.1265" y1="581.5557" y2="581.5557"/><polygon fill="#D9D3D0" points="788.1265,577.5557,778.1265,581.5557,788.1265,585.5557,784.1265,581.5557" style="stroke:#D9D3D0;stroke-width:1;"/><text fill="#D9D3D0" font-family="Verdana" font-size="13" lengthAdjust="spacing" textLength="175.938" x="784.1265" y="563.8262">Mapear experiencia a skills</text><polygon fill="#D9D3D0" points="371.6846,623.1543,361.6846,627.1543,371.6846,631.1543,367.6846,627.1543" style="stroke:#D9D3D0;stroke-width:1;"/><line style="stroke:#D9D3D0;stroke-width:1;stroke-dasharray:2.0,2.0;" x1="365.6846" x2="771.1265" y1="627.1543" y2="627.1543"/><text fill="#D9D3D0" font-family="Verdana" font-size="13" lengthAdjust="spacing" textLength="93.9326" x="519.4392" y="606.6255">SQL &#10003; Excel &#10003;</text><text fill="#D9D3D0" font-family="Verdana" font-size="13" lengthAdjust="spacing" textLength="205.4355" x="463.6877" y="622.4248">Python b&#225;sico, ML &#10007; (gap 60%)</text><polygon fill="#D9D3D0" points="1612.4111,652.9536,1622.4111,656.9536,1612.4111,660.9536,1616.4111,656.9536" style="stroke:#D9D3D0;stroke-width:1;"/><line style="stroke:#D9D3D0;stroke-width:1;" x1="360.6846" x2="1618.4111" y1="656.9536" y2="656.9536"/><text fill="#D9D3D0" font-family="Verdana" font-size="13" lengthAdjust="spacing" textLength="126.9912" x="929.0522" y="652.2241">Guardar evaluaci&#243;n</text><path d="M285.02,671.9536 L354.2554,671.9536 L354.2554,679.7529 L344.2554,689.7529 L285.02,689.7529 L285.02,671.9536 " fill="#003153" style="stroke:#D9D3D0;stroke-width:1;"/><rect fill="transparent" height="364.1904" style="stroke:#D9D3D0;stroke-width:1;" width="1267.1606" x="285.02" y="671.9536"/><text fill="#D9D3D0" font-family="Verdana" font-size="13" font-weight="bold" lengthAdjust="spacing" textLength="24.2354" x="300.02" y="686.0234">par</text><text fill="#D9D3D0" font-family="Verdana" font-size="11" font-weight="bold" lengthAdjust="spacing" textLength="124.9209" x="369.2554" y="685.0127">[Ejecuci&#243;n paralela]</text><polygon fill="#D9D3D0" points="965.0645,723.3516,975.0645,727.3516,965.0645,731.3516,969.0645,727.3516" style="stroke:#D9D3D0;stroke-width:1;"/><line style="stroke:#D9D3D0;stroke-width:1;" x1="360.6846" x2="971.0645" y1="727.3516" y2="727.3516"/><text fill="#D9D3D0" font-family="Verdana" font-size="13" lengthAdjust="spacing" textLength="162.1763" x="587.7864" y="706.8228">Analizar mercado laboral</text><text fill="#D9D3D0" font-family="Verdana" font-size="13" lengthAdjust="spacing" textLength="124.9409" x="606.4041" y="722.6221">para Data Scientist</text><line style="stroke:#D9D3D0;stroke-width:1;" x1="987.0645" x2="1029.0645" y1="757.1509" y2="757.1509"/><line style="stroke:#D9D3D0;stroke-width:1;" x1="1029.0645" x2="1029.0645" y1="757.1509" y2="770.1509"/><line style="stroke:#D9D3D0;stroke-width:1;" x1="988.0645" x2="1029.0645" y1="770.1509" y2="770.1509"/><polygon fill="#D9D3D0" points="998.0645,766.1509,988.0645,770.1509,998.0645,774.1509,994.0645,770.1509" style="stroke:#D9D3D0;stroke-width:1;"/><text fill="#D9D3D0" font-family="Verdana" font-size="13" lengthAdjust="spacing" textLength="210.5771" x="994.0645" y="752.4214">Consultar LinkedIn/InfoJobs API</text><polygon fill="#D9D3D0" points="1488.9404,795.9502,1498.9404,799.9502,1488.9404,803.9502,1492.9404,799.9502" style="stroke:#D9D3D0;stroke-width:1;"/><line style="stroke:#D9D3D0;stroke-width:1;" x1="987.0645" x2="1494.9404" y1="799.9502" y2="799.9502"/><text fill="#D9D3D0" font-family="Verdana" font-size="13" lengthAdjust="spacing" textLength="203.5122" x="1142.2463" y="795.2207">Consultar tendencias hist&#243;ricas</text><polygon fill="#D9D3D0" points="998.0645,825.7495,988.0645,829.7495,998.0645,833.7495,994.0645,829.7495" style="stroke:#D9D3D0;stroke-width:1;"/><line style="stroke:#D9D3D0;stroke-width:1;stroke-dasharray:2.0,2.0;" x1="992.0645" x2="1499.9404" y1="829.7495" y2="829.7495"/><text fill="#D9D3D0" font-family="Verdana" font-size="13" lengthAdjust="spacing" textLength="112.2646" x="1187.8701" y="825.02">Datos tendencias</text><polygon fill="#D9D3D0" points="371.6846,871.3481,361.6846,875.3481,371.6846,879.3481,367.6846,875.3481" style="stroke:#D9D3D0;stroke-width:1;"/><line style="stroke:#D9D3D0;stroke-width:1;stroke-dasharray:2.0,2.0;" x1="365.6846" x2="981.0645" y1="875.3481" y2="875.3481"/><text fill="#D9D3D0" font-family="Verdana" font-size="13" lengthAdjust="spacing" textLength="120.8784" x="610.9353" y="854.8193">8,500 ofertas/mes</text><text fill="#D9D3D0" font-family="Verdana" font-size="13" lengthAdjust="spacing" textLength="158.228" x="592.2605" y="870.6187">+40% YoY, 50-70K EUR</text><line style="stroke:#D9D3D0;stroke-width:1;stroke-dasharray:2.0,2.0;" x1="285.02" x2="1552.1807" y1="884.3481" y2="884.3481"/><polygon fill="#D9D3D0" points="1209.6416,903.1475,1219.6416,907.1475,1209.6416,911.1475,1213.6416,907.1475" style="stroke:#D9D3D0;stroke-width:1;"/><line style="stroke:#D9D3D0;stroke-width:1;" x1="360.6846" x2="1215.6416" y1="907.1475" y2="907.1475"/><text fill="#D9D3D0" font-family="Verdana" font-size="13" lengthAdjust="spacing" textLength="210.7041" x="685.811" y="902.418">Buscar formaciones compatibles</text><polygon fill="#D9D3D0" points="1488.9404,948.7461,1498.9404,952.7461,1488.9404,956.7461,1492.9404,952.7461" style="stroke:#D9D3D0;stroke-width:1;"/><line style="stroke:#D9D3D0;stroke-width:1;" x1="1231.6416" x2="1494.9404" y1="952.7461" y2="952.7461"/><text fill="#D9D3D0" font-family="Verdana" font-size="13" lengthAdjust="spacing" textLength="179.3784" x="1276.6018" y="932.2173">Query: Cursos para gap ML</text><text fill="#D9D3D0" font-family="Verdana" font-size="13" lengthAdjust="spacing" textLength="245.2988" x="1243.6416" y="948.0166">con restricciones tiempo/presupuesto</text><polygon fill="#D9D3D0" points="1242.6416,978.5454,1232.6416,982.5454,1242.6416,986.5454,1238.6416,982.5454" style="stroke:#D9D3D0;stroke-width:1;"/><line style="stroke:#D9D3D0;stroke-width:1;stroke-dasharray:2.0,2.0;" x1="1236.6416" x2="1499.9404" y1="982.5454" y2="982.5454"/><text fill="#D9D3D0" font-family="Verdana" font-size="13" lengthAdjust="spacing" textLength="133.561" x="1299.5105" y="977.8159">M&#225;ster Data Science</text><polygon fill="#D9D3D0" points="371.6846,1024.144,361.6846,1028.144,371.6846,1032.144,367.6846,1028.144" style="stroke:#D9D3D0;stroke-width:1;"/><line style="stroke:#D9D3D0;stroke-width:1;stroke-dasharray:2.0,2.0;" x1="365.6846" x2="1225.6416" y1="1028.144" y2="1028.144"/><text fill="#D9D3D0" font-family="Verdana" font-size="13" lengthAdjust="spacing" textLength="133.561" x="726.8826" y="1007.6152">M&#225;ster Data Science</text><text fill="#D9D3D0" font-family="Verdana" font-size="13" lengthAdjust="spacing" textLength="113.6421" x="736.842" y="1023.4146">12 meses, Online</text><polygon fill="#D9D3D0" points="1612.4111,1060.9434,1622.4111,1064.9434,1612.4111,1068.9434,1616.4111,1064.9434" style="stroke:#D9D3D0;stroke-width:1;"/><line style="stroke:#D9D3D0;stroke-width:1;" x1="360.6846" x2="1618.4111" y1="1064.9434" y2="1064.9434"/><text fill="#D9D3D0" font-family="Verdana" font-size="13" lengthAdjust="spacing" textLength="239.1035" x="872.9961" y="1060.2139">Guardar resultados market + course</text><polygon fill="#D9D3D0" points="1355.2783,1106.542,1365.2783,1110.542,1355.2783,1114.542,1359.2783,1110.542" style="stroke:#D9D3D0;stroke-width:1;"/><line style="stroke:#D9D3D0;stroke-width:1;" x1="360.6846" x2="1361.2783" y1="1110.542" y2="1110.542"/><text fill="#D9D3D0" font-family="Verdana" font-size="13" lengthAdjust="spacing" textLength="159.1104" x="784.4263" y="1090.0132">Dise&#241;ar trayectorias con</text><text fill="#D9D3D0" font-family="Verdana" font-size="13" lengthAdjust="spacing" textLength="120.7642" x="803.5994" y="1105.8125">contexto completo</text><polygon fill="#D9D3D0" points="1612.4111,1136.3413,1622.4111,1140.3413,1612.4111,1144.3413,1616.4111,1140.3413" style="stroke:#D9D3D0;stroke-width:1;"/><line style="stroke:#D9D3D0;stroke-width:1;" x1="1377.2783" x2="1618.4111" y1="1140.3413" y2="1140.3413"/><text fill="#D9D3D0" font-family="Verdana" font-size="13" lengthAdjust="spacing" textLength="191.8643" x="1404.9126" y="1135.6118">Recuperar contexto completo</text><polygon fill="#D9D3D0" points="1388.2783,1166.1406,1378.2783,1170.1406,1388.2783,1174.1406,1384.2783,1170.1406" style="stroke:#D9D3D0;stroke-width:1;"/><line style="stroke:#D9D3D0;stroke-width:1;stroke-dasharray:2.0,2.0;" x1="1382.2783" x2="1623.4111" y1="1170.1406" y2="1170.1406"/><text fill="#D9D3D0" font-family="Verdana" font-size="13" lengthAdjust="spacing" textLength="223.1328" x="1389.2783" y="1165.4111">Perfil + Skills + Market + Courses</text><polygon fill="#D9D3D0" points="1702.8311,1211.7393,1712.8311,1215.7393,1702.8311,1219.7393,1706.8311,1215.7393" style="stroke:#D9D3D0;stroke-width:1;"/><line style="stroke:#D9D3D0;stroke-width:1;" x1="1377.2783" x2="1708.8311" y1="1215.7393" y2="1215.7393"/><text fill="#D9D3D0" font-family="Verdana" font-size="13" lengthAdjust="spacing" textLength="162.354" x="1464.8777" y="1195.2104">Razonamiento complejo:</text><text fill="#D9D3D0" font-family="Verdana" font-size="13" lengthAdjust="spacing" textLength="200.9604" x="1445.5745" y="1211.0098">Dise&#241;ar 3 trayectorias &#243;ptimas</text><line style="stroke:#D9D3D0;stroke-width:1;" x1="1724.8311" x2="1766.8311" y1="1245.5386" y2="1245.5386"/><line style="stroke:#D9D3D0;stroke-width:1;" x1="1766.8311" x2="1766.8311" y1="1245.5386" y2="1258.5386"/><line style="stroke:#D9D3D0;stroke-width:1;" x1="1725.8311" x2="1766.8311" y1="1258.5386" y2="1258.5386"/><polygon fill="#D9D3D0" points="1735.8311,1254.5386,1725.8311,1258.5386,1735.8311,1262.5386,1731.8311,1258.5386" style="stroke:#D9D3D0;stroke-width:1;"/><text fill="#D9D3D0" font-family="Verdana" font-size="13" lengthAdjust="spacing" textLength="188.792" x="1731.8311" y="1240.8091">Analizar perfil y restricciones</text><line style="stroke:#D9D3D0;stroke-width:1;" x1="1724.8311" x2="1766.8311" y1="1288.3379" y2="1288.3379"/><line style="stroke:#D9D3D0;stroke-width:1;" x1="1766.8311" x2="1766.8311" y1="1288.3379" y2="1301.3379"/><line style="stroke:#D9D3D0;stroke-width:1;" x1="1725.8311" x2="1766.8311" y1="1301.3379" y2="1301.3379"/><polygon fill="#D9D3D0" points="1735.8311,1297.3379,1725.8311,1301.3379,1735.8311,1305.3379,1731.8311,1301.3379" style="stroke:#D9D3D0;stroke-width:1;"/><text fill="#D9D3D0" font-family="Verdana" font-size="13" lengthAdjust="spacing" textLength="184.3994" x="1731.8311" y="1283.6084">Evaluar opciones formativas</text><line style="stroke:#D9D3D0;stroke-width:1;" x1="1724.8311" x2="1766.8311" y1="1331.1372" y2="1331.1372"/><line style="stroke:#D9D3D0;stroke-width:1;" x1="1766.8311" x2="1766.8311" y1="1331.1372" y2="1344.1372"/><line style="stroke:#D9D3D0;stroke-width:1;" x1="1725.8311" x2="1766.8311" y1="1344.1372" y2="1344.1372"/><polygon fill="#D9D3D0" points="1735.8311,1340.1372,1725.8311,1344.1372,1735.8311,1348.1372,1731.8311,1344.1372" style="stroke:#D9D3D0;stroke-width:1;"/><text fill="#D9D3D0" font-family="Verdana" font-size="13" lengthAdjust="spacing" textLength="182.438" x="1731.8311" y="1326.4077">Calcular ROI y alineamiento</text><polygon fill="#D9D3D0" points="1388.2783,1369.9365,1378.2783,1373.9365,1388.2783,1377.9365,1384.2783,1373.9365" style="stroke:#D9D3D0;stroke-width:1;"/><line style="stroke:#D9D3D0;stroke-width:1;stroke-dasharray:2.0,2.0;" x1="1382.2783" x2="1718.8311" y1="1373.9365" y2="1373.9365"/><text fill="#D9D3D0" font-family="Verdana" font-size="13" lengthAdjust="spacing" textLength="211.5674" x="1442.771" y="1369.207">3 trayectorias con razonamiento</text><polygon fill="#D9D3D0" points="371.6846,1431.3345,361.6846,1435.3345,371.6846,1439.3345,367.6846,1435.3345" style="stroke:#D9D3D0;stroke-width:1;"/><line style="stroke:#D9D3D0;stroke-width:1;stroke-dasharray:2.0,2.0;" x1="365.6846" x2="1371.2783" y1="1435.3345" y2="1435.3345"/><text fill="#D9D3D0" font-family="Verdana" font-size="13" lengthAdjust="spacing" textLength="172.3706" x="780.2961" y="1399.0063">Trayectoria recomendada:</text><text fill="#D9D3D0" font-family="Verdana" font-size="13" lengthAdjust="spacing" textLength="133.561" x="799.7009" y="1414.8057">M&#225;ster Data Science</text><text fill="#D9D3D0" font-family="Verdana" font-size="13" lengthAdjust="spacing" textLength="169.019" x="781.9719" y="1430.605">con justificaci&#243;n completa</text><polygon fill="#D9D3D0" points="1612.4111,1461.1338,1622.4111,1465.1338,1612.4111,1469.1338,1616.4111,1465.1338" style="stroke:#D9D3D0;stroke-width:1;"/><line style="stroke:#D9D3D0;stroke-width:1;" x1="360.6846" x2="1618.4111" y1="1465.1338" y2="1465.1338"/><text fill="#D9D3D0" font-family="Verdana" font-size="13" lengthAdjust="spacing" textLength="156.6221" x="914.2368" y="1460.4043">Guardar recomendaci&#243;n</text><polygon fill="#D9D3D0" points="50.561,1554.1304,40.561,1558.1304,50.561,1562.1304,46.561,1558.1304" style="stroke:#D9D3D0;stroke-width:1;"/><line style="stroke:#D9D3D0;stroke-width:1;" x1="44.561" x2="354.6846" y1="1558.1304" y2="1558.1304"/><text fill="#D9D3D0" font-family="Verdana" font-size="13" lengthAdjust="spacing" textLength="287.1235" x="54.061" y="1490.2036">"Te recomiendo M&#193;STER EN DATA SCIENCE</text><text fill="#D9D3D0" font-family="Verdana" font-size="13" lengthAdjust="spacing" textLength="4.5703" x="195.3376" y="1506.0029">&#160;</text><text fill="#D9D3D0" font-family="Verdana" font-size="13" lengthAdjust="spacing" textLength="74.5786" x="160.3335" y="1521.8022">Por qu&#233;: ...</text><text fill="#D9D3D0" font-family="Verdana" font-size="13" lengthAdjust="spacing" textLength="106.1455" x="144.55" y="1537.6016">Perspectivas: ...</text><text fill="#D9D3D0" font-family="Verdana" font-size="13" lengthAdjust="spacing" textLength="148.6113" x="123.3171" y="1553.4009">ROI: 300% en 4 a&#241;os"</text><!--SRC=[ZLRDRXit4BxlKqm516WHnr7-saA71egY1cwi-3U70BhGtB54YqjkI6uIvzPdwA6NNdhCeOV03n0WUfC-IMUukn9Naf7wu5rnv_URRsRuNPXZWN2XAooTCY7p2sLAuKG13drfZSS9UYzc-0orVJzqphw7u2fC13s-hT38Ld2erSo0H1FGPPcGmJfuxIlXb0NXeV9qJ8f1ILKA4w1tv4ZV1v5RDpNdM9JM2RslR8_5hPDp-kW4cUcgdOKg9oSmiaBEfsOuenzHHVB1Xkn2QUrXw3t5M91WAk_Znwx2HBW51ZYW93Jbm-cbAaNyt5KPsSfvXF674bteniCVDeI5GtGmpDyfpsclfKLzbEKYY0j11dilZNslCPzH12-SAETHR35B92POMAV4r8ni4TtaeWwJpw-xdbzOEzDi2WjbL1IRnTSi2ofeX5zrTMKXHoA0j8HLBgHQtXW-eJ9S8nTK2H1IvCjFXP8YoxYcSE-NJh46q3kf53eB_F4vnGfdKb6MoeUzAU5gPXOedzm26XXBQson_4Vqc37gdGZOBNsM_c9VTMu3U47CoeKZbCdcXy3kFCUxfH1fCO2X4Lfzh1LyfIaiobqgeTUEQmB5_udY-9tGv8l4BwqhMb0KDucwqDZARy7m2YL5H7wAvTz-5MQMuuQ_hO0PLKBnwvT8AOAEecHzeC9R_tHglduvPNabfR86FGJ5pNE_fCwjIcuf-xHtMsqUW5X-fePaDAZtziYRXREJGxWc1alK-rDplBP3QEVAxi73gELxjvTZA4Er1hXETKkuxhWrfCIp4aDCa1eWMa2_haVJeFM3zHUp0RLzNJxNV2QwqXXnAhT-6WVJ1kUonImMf_Lzo6btF2SEMg69A94yO580iHdE5hQCuhz__L7Zo6y4vNMOK-4kY05A4euJblWJlf-94dxit_aXPKDZ_fk4nmXUf676BGxZAvHLJKlENwCM6T3Vbg4ul99EAD19xaCjBdZqxeQFBQrYREOVdzMlgTrrPGwLMM1-OEuVKC_yPYze0XyVR6XrQqcbo1iUpCdhyeROJPLXbQP-hPVdt0I9VCViLar-tdlIxuEzfD4i_Fq2YIDt7_Vlm1lxPW-UzE_zr7y9uzUdqKXIYoPFr3I_Tq5PZ_O1FAkyfEYRmH2RaPab0ay6tyMkMGTyLh-sA9mGVQc-8pgZp68Dc1-JmwdXhdVVwFKKf3Qk2H4kTCQlx7hU0cgNnjGyU4WaeS6w1qT6AuERE3KvKJ6-pLkEMFEsRzSet6trjtIRPKZLLXwNdvaWwnKKXsd4fXxyZBX60c8LLhjBcsSQpIdr2ZLrkZXM-hLC16SLm36wIwKfrEOgSHScRV3rulUfbtgZaXVnqHfHS0-rzg_iO6fMwJpg9hIyAOCgH3BxcjrSFrBJg-ujwyYkkmJPeT5EMris78fqPJ-xf4T2oqgJ-EdH0HaNNFOcavLq2j2ZhTA0Ix9F9roJqmglBHAU9_UCrIqa5mJSRdgoiwlA1tL9qwAUW4qnHUgtfSF_e6XwyxbjCPytLoGAWeRdPFdxsVdu5CQluFdmV0XdeuFngz5uIWmz9hMtrVBJ0FRtUQ-YyoN6e7npH1WJWdqQI7GNUjmksIJqpbteFm00]--></g></svg>